<?xml version="1.0" standalone="no"?>
<!DOCTYPE svg PUBLIC "-//W3C//DTD SVG 20010904//EN"
 "http://www.w3.org/TR/2001/REC-SVG-20010904/DTD/svg10.dtd">
<svg version="1.0" xmlns="http://www.w3.org/2000/svg"
 width="1083.000000pt" height="1079.000000pt" viewBox="0 0 1083.000000 1079.000000"
 preserveAspectRatio="xMidYMid meet">

<g transform="translate(0.000000,1079.000000) scale(0.100000,-0.100000)"
fill="#000000" stroke="none">
<path d="M0 5395 c0 -4789 2 -5395 15 -5395 13 0 15 606 15 5395 0 4789 -2
5395 -15 5395 -13 0 -15 -606 -15 -5395z"/>
<path d="M5532 8738 c3 -7 20 -18 39 -25 l34 -14 -28 26 c-30 27 -51 33 -45
13z"/>
<path d="M5091 8716 c-33 -12 -31 -13 39 -14 76 -2 139 -17 152 -36 9 -13 11
-52 2 -43 -4 3 -14 2 -23 -3 -10 -5 -23 -5 -31 0 -10 6 -5 12 21 23 33 15 33
15 7 16 -15 1 -38 5 -52 11 -20 7 -28 6 -36 -8 -11 -16 -11 -16 -6 0 6 19 -9
34 -18 20 -3 -5 -18 -7 -33 -4 l-28 5 23 -21 23 -21 -21 -11 c-16 -8 -20 -18
-16 -33 5 -21 4 -21 -9 -4 -7 11 -11 25 -9 32 3 7 0 16 -7 21 -8 4 -10 3 -5
-5 8 -13 -18 -44 -29 -33 -4 4 -5 1 -3 -7 2 -7 -3 -16 -9 -18 -7 -3 -13 1 -13
8 0 7 -6 5 -15 -7 -14 -19 -14 -18 -15 4 0 14 6 22 18 22 15 1 15 2 -3 15 -11
8 -26 19 -32 25 -10 8 -13 6 -13 -7 0 -15 -2 -16 -10 -3 -5 8 -10 10 -10 4 0
-17 -43 -31 -70 -23 -16 4 -19 7 -7 8 9 1 17 6 17 11 0 6 9 10 19 10 11 0 23
5 26 10 3 6 15 10 25 10 10 0 22 5 26 11 8 13 -49 3 -81 -14 -11 -6 -23 -10
-27 -9 -5 1 -8 -2 -8 -7 0 -5 -39 -21 -87 -36 -49 -16 -90 -31 -93 -35 -3 -3
-25 -14 -50 -23 -25 -9 -74 -35 -110 -57 -36 -22 -71 -40 -77 -40 -23 0 -68
-60 -65 -86 4 -25 -13 -34 -21 -11 -5 15 -8 13 -38 -48 -27 -54 -27 -75 -1
-75 14 -1 13 -3 -3 -12 -11 -6 -25 -19 -32 -27 -7 -9 -13 -11 -13 -5 0 6 6 17
14 24 22 18 8 39 -24 37 -15 -1 -26 -6 -22 -11 3 -5 -4 -7 -16 -4 -27 7 -98
-53 -87 -73 5 -8 4 -10 -3 -5 -6 4 -18 -6 -27 -24 -20 -39 -28 -38 -21 3 6 32
5 31 -14 -8 -11 -23 -20 -32 -20 -22 0 24 17 56 48 90 30 31 16 36 -21 7 -14
-11 -30 -20 -36 -20 -6 0 -11 -4 -11 -8 0 -14 -47 -31 -69 -25 -12 3 -21 1
-21 -5 0 -6 -30 -31 -67 -55 -76 -51 -145 -130 -119 -135 18 -4 22 -22 5 -22
-5 0 -8 -4 -5 -8 3 -5 -11 -33 -30 -63 -51 -76 -74 -124 -89 -183 -11 -43 -11
-53 1 -67 15 -17 19 -69 5 -69 -5 0 -7 -9 -4 -21 4 -13 -6 -36 -27 -65 -18
-25 -30 -47 -28 -50 3 -2 16 12 30 32 38 53 42 25 8 -48 -31 -64 -38 -94 -20
-83 6 3 10 -1 10 -9 0 -9 -6 -15 -12 -14 -9 2 -12 -12 -11 -49 1 -40 -2 -53
-13 -53 -8 0 -14 8 -14 18 0 9 -5 24 -11 32 -8 11 -9 7 -4 -17 5 -24 2 -34
-12 -43 -16 -10 -16 -11 0 -6 11 3 17 0 17 -9 0 -12 -7 -12 -44 3 -25 9 -56
27 -70 39 -29 25 -34 19 -11 -13 8 -12 12 -23 10 -26 -4 -3 22 -12 110 -34 27
-7 25 -9 -25 -14 l-55 -5 35 -12 c19 -6 53 -11 75 -10 36 2 42 -1 57 -32 17
-34 17 -35 -13 -90 -17 -31 -37 -61 -46 -68 -14 -11 -14 -15 0 -42 20 -39 7
-39 -32 0 -18 17 -31 25 -31 17 0 -8 12 -21 28 -30 15 -9 36 -25 47 -35 11
-10 48 -32 82 -48 33 -17 59 -33 57 -37 -10 -16 17 -47 46 -53 16 -4 30 -11
30 -16 0 -6 -8 -5 -20 1 -14 7 -20 7 -20 0 0 -5 5 -10 10 -10 6 0 10 -5 10
-11 0 -8 -16 -10 -47 -6 -48 5 -36 -6 20 -17 23 -6 27 -11 27 -41 0 -18 -4
-37 -10 -40 -13 -8 -13 -55 1 -55 5 0 7 -5 3 -12 -4 -6 1 -17 10 -24 10 -6 21
-25 25 -40 5 -18 16 -30 31 -34 28 -7 38 -33 39 -108 l1 -53 -36 3 c-19 1 -38
6 -41 12 -3 5 -1 6 5 2 7 -4 12 -3 12 2 0 6 -7 12 -15 16 -9 3 -15 19 -15 41
0 20 4 34 9 31 5 -4 7 3 4 13 -3 11 -11 22 -19 25 -23 9 -36 -31 -29 -89 7
-53 7 -54 -20 -57 -73 -8 -46 -96 53 -170 52 -39 71 -47 138 -58 43 -6 89 -16
103 -21 23 -9 23 -10 5 -23 -10 -8 -22 -12 -26 -10 -5 3 -8 0 -8 -6 0 -6 -7
-18 -16 -27 -8 -9 -12 -19 -7 -23 14 -12 73 -20 73 -10 0 6 5 10 10 10 6 0 10
-7 10 -16 0 -14 -10 -16 -62 -12 -56 4 -57 1 -4 -16 12 -4 16 -12 12 -22 -5
-13 -4 -14 7 -5 19 15 107 27 107 14 0 -9 -45 -31 -95 -48 -16 -5 -17 -8 -5
-16 25 -15 87 3 133 40 9 8 20 11 24 8 3 -4 12 -2 20 4 16 14 18 -7 4 -30 -7
-11 -3 -20 11 -33 13 -11 19 -25 15 -38 -3 -11 -2 -20 2 -20 4 0 12 17 17 38
l9 37 18 -38 c12 -24 24 -37 32 -33 7 2 19 -2 26 -10 20 -24 160 -82 159 -66
-1 4 -5 27 -9 50 l-9 44 29 -31 c18 -20 30 -47 35 -76 3 -25 10 -45 15 -45 4
0 6 -16 4 -35 -3 -19 -1 -35 4 -35 5 0 9 -12 9 -26 0 -14 8 -38 19 -53 17 -22
18 -29 7 -39 -7 -6 -18 -12 -23 -12 -5 0 -3 -14 6 -30 8 -17 12 -37 9 -45 -2
-7 0 -15 5 -17 7 -2 7 -13 -1 -32 l-11 -29 -23 22 c-18 17 -25 37 -30 84 -24
233 -31 256 -72 229 -10 -6 -100 -143 -148 -225 l-18 -32 44 -66 c33 -49 49
-87 62 -145 10 -43 24 -92 31 -109 7 -16 17 -43 24 -58 15 -38 14 -49 -6 -45
-12 2 -31 43 -64 143 l-48 140 -1 -75 c-1 -110 -23 -143 -119 -181 -41 -15
-79 -33 -85 -39 -5 -5 -18 -10 -28 -10 -27 0 -393 -174 -453 -216 -35 -24 -70
-38 -140 -54 -69 -16 -262 -110 -246 -119 15 -9 59 -2 67 10 3 5 15 9 27 9 18
0 133 37 200 65 9 4 17 5 17 2 0 -14 -158 -74 -240 -92 -19 -4 -61 -16 -92
-26 -67 -22 -72 -23 -62 -7 4 7 3 8 -5 4 -6 -4 -9 -11 -6 -16 3 -5 -8 -11 -24
-15 -17 -3 -47 -15 -68 -24 -21 -10 -92 -42 -158 -71 -191 -84 -349 -183 -353
-222 -11 -98 -11 -108 -1 -102 6 3 5 -4 -3 -17 -12 -23 -13 -21 -16 31 -2 30
-7 59 -12 63 -16 17 -169 -210 -265 -396 -35 -67 -85 -174 -110 -237 -87 -216
-182 -597 -200 -800 -1 -19 -10 -55 -18 -80 -24 -71 -31 -141 -15 -151 10 -7
9 -9 -4 -9 -10 0 -18 -6 -18 -12 0 -7 -11 -101 -24 -208 -14 -107 -29 -238
-35 -290 -5 -52 -23 -212 -40 -355 -32 -273 -79 -700 -107 -970 -28 -277 -52
-479 -59 -503 l-7 -22 600 0 c525 0 601 2 606 15 3 8 -3 43 -14 78 -28 87 -25
118 16 209 33 73 37 92 44 207 13 187 23 211 140 326 80 78 142 162 158 215 6
19 14 64 17 98 5 44 10 61 17 54 16 -16 -8 -681 -32 -902 -11 -102 -23 -211
-27 -242 l-6 -58 586 0 c517 0 586 2 581 15 -4 8 -1 15 5 15 6 0 11 6 11 14 0
8 7 16 15 20 8 3 15 10 15 15 0 5 4 20 9 33 5 13 9 25 9 28 -1 11 57 70 68 70
7 0 10 8 7 20 -4 13 0 20 9 20 8 0 15 7 16 15 1 8 3 21 4 29 1 9 13 14 32 14
17 0 44 5 60 12 23 8 31 8 38 -2 11 -18 10 -30 -9 -128 -14 -75 -20 -90 -44
-106 -15 -10 -27 -21 -27 -24 2 -20 -4 -30 -17 -30 -8 0 -15 -7 -15 -15 0 -13
93 -15 775 -15 682 0 775 2 775 15 0 8 -7 15 -16 15 -8 0 -12 -5 -9 -10 3 -6
1 -10 -4 -10 -6 0 -11 9 -11 21 0 11 -4 28 -9 37 -15 28 -28 184 -35 432 -1
27 -6 34 -18 32 -9 -1 -20 3 -24 9 -4 7 -3 9 4 6 18 -12 42 4 42 29 0 13 5 24
10 24 6 0 10 7 10 15 0 8 8 15 18 15 26 0 42 20 42 51 0 25 -3 27 -34 25 -19
-2 -39 0 -45 3 -13 8 -27 99 -30 193 -1 54 -6 76 -18 85 -10 8 -12 13 -5 13 9
0 12 21 11 75 -1 41 -5 75 -9 75 -4 0 -5 24 -2 54 2 32 0 56 -6 60 -7 4 -8 15
-2 30 5 13 6 27 3 30 -4 3 -2 6 4 6 14 0 58 -67 73 -110 9 -26 19 -36 36 -38
26 -2 29 7 25 66 -3 38 21 45 39 11 7 -12 18 -18 26 -15 25 10 15 -13 -13 -28
l-28 -15 30 -2 c19 -1 23 -3 12 -6 -18 -5 -17 -6 3 -28 12 -13 27 -22 34 -19
7 3 12 -6 11 -23 0 -22 7 -31 33 -43 24 -10 32 -19 29 -32 -3 -10 7 -33 24
-54 16 -20 29 -33 29 -28 0 5 6 0 12 -10 8 -15 8 -21 0 -24 -7 -2 -10 -8 -7
-12 3 -5 15 0 27 12 16 16 22 18 29 7 5 -8 9 -24 9 -36 0 -25 39 -56 66 -51 9
2 19 -2 21 -9 3 -8 -4 -10 -21 -7 -13 2 -28 -1 -31 -7 -5 -7 7 -10 36 -8 48 2
89 -8 89 -22 0 -5 19 -34 43 -63 33 -43 48 -55 71 -55 16 -1 38 -8 48 -18 11
-9 18 -11 18 -5 0 7 4 12 9 12 5 0 8 -11 7 -25 -2 -13 1 -22 5 -19 5 3 9 0 9
-5 0 -6 16 -11 36 -11 27 0 42 -7 62 -30 31 -35 42 -38 42 -11 0 12 11 23 32
30 47 16 23 36 -27 22 -29 -8 -34 -7 -26 3 6 7 8 15 5 19 -3 3 4 10 15 17 30
15 26 23 -21 50 -66 36 -79 50 -74 79 5 22 -2 32 -39 60 -25 18 -42 37 -39 42
6 11 -15 51 -32 62 -8 4 -14 15 -14 23 0 8 -4 13 -9 10 -5 -3 -12 6 -15 20 -4
14 -15 38 -24 52 -9 14 -17 30 -17 36 -1 6 -10 29 -20 51 -10 22 -18 43 -17
48 1 4 -2 7 -8 7 -5 0 -10 9 -10 21 0 12 -11 44 -25 71 -14 27 -23 54 -19 59
3 5 1 9 -5 9 -6 0 -15 19 -22 43 -6 23 -15 47 -19 52 -5 6 -8 12 -8 15 2 13
-16 55 -28 68 -13 12 -11 73 3 95 2 4 -1 7 -7 7 -6 0 -20 9 -32 20 l-22 20 22
0 c13 0 22 6 22 15 0 8 -8 15 -17 15 -15 0 -16 2 -3 10 13 9 13 10 0 10 -13 0
-13 1 0 10 9 6 11 10 3 10 -7 0 -10 6 -7 14 3 7 -2 20 -10 29 -9 9 -16 22 -16
29 0 8 -5 19 -12 26 -9 9 -9 12 2 12 11 1 11 3 -2 11 -21 12 -24 39 -5 39 8 1
7 4 -3 13 -8 7 -16 23 -18 37 -2 14 -10 44 -18 67 -17 53 -25 97 -26 146 0 26
-5 37 -15 37 -9 0 -13 6 -10 15 7 17 3 20 -38 29 -16 4 -25 3 -20 -1 12 -10
15 -94 3 -87 -4 3 -17 23 -28 45 -11 21 -25 39 -30 39 -6 0 -10 6 -10 14 0 20
-14 28 -36 19 -15 -6 -15 -7 4 -14 11 -4 20 -16 20 -26 -1 -28 5 -45 25 -68
10 -11 16 -28 13 -38 -2 -10 4 -21 16 -28 13 -7 17 -14 11 -20 -12 -12 -45 -1
-37 12 3 5 0 9 -6 9 -16 0 -50 62 -50 92 0 17 -8 31 -21 38 -11 6 -19 16 -16
23 5 15 -24 48 -36 40 -5 -3 -8 0 -5 8 7 20 40 24 50 5 5 -9 18 -16 30 -16 16
0 18 3 9 14 -6 7 -9 21 -5 30 7 19 -26 22 -58 5 -24 -13 -72 -3 -62 13 4 6 -5
3 -19 -8 -31 -22 -34 -39 -9 -53 9 -6 12 -11 5 -11 -16 0 -76 77 -69 89 4 5 1
21 -5 34 -8 18 -8 30 0 46 7 11 8 21 4 21 -4 0 -9 26 -11 58 -2 31 -4 71 -5
87 -1 17 -6 33 -10 36 -5 3 -2 9 7 12 12 5 16 0 16 -17 0 -13 9 -34 19 -48 11
-13 23 -36 26 -50 6 -24 39 -43 56 -33 15 10 0 64 -39 144 -23 47 -49 92 -56
100 -28 31 -36 74 -47 259 -14 236 -14 219 0 337 17 137 32 184 98 311 31 60
59 124 62 143 6 33 7 34 23 17 20 -19 21 -18 85 42 19 17 38 32 42 32 3 0 11
10 16 23 6 12 12 20 15 17 6 -5 44 32 88 88 l33 42 -32 0 c-26 0 -45 -14 -110
-80 -43 -44 -79 -84 -79 -89 0 -5 -13 -14 -30 -20 -33 -11 -34 -9 -21 17 4 9
20 43 34 74 33 71 75 96 186 109 104 12 100 11 98 20 -2 8 54 59 65 59 14 0
70 54 84 82 15 30 15 30 -27 66 -84 74 -174 115 -388 178 -129 38 -124 37
-116 24 3 -5 -13 -26 -35 -47 -46 -42 -124 -138 -158 -194 -12 -20 -35 -53
-51 -73 -17 -21 -28 -43 -25 -51 3 -7 1 -16 -5 -20 -7 -4 -9 1 -5 12 4 12 0
10 -15 -7 -11 -14 -21 -27 -21 -31 0 -17 -246 -199 -253 -188 -42 65 -115 149
-129 149 -9 0 -25 9 -35 19 -10 11 -52 38 -94 60 -67 36 -82 50 -123 111 -49
75 -53 85 -33 94 6 3 3 4 -8 3 -15 -1 -21 5 -23 26 -4 32 6 34 55 10 28 -13
39 -14 54 -4 16 9 21 9 25 -4 6 -14 8 -14 18 0 12 16 35 18 156 17 132 -2 155
1 154 21 -1 9 4 17 12 17 8 0 14 4 14 8 0 4 19 9 43 11 23 1 50 3 59 4 9 1 15
4 12 8 -2 4 10 9 26 13 17 3 30 12 30 19 0 10 -8 13 -25 9 -15 -2 -25 0 -25 7
0 6 5 11 11 11 5 0 7 4 4 10 -3 6 1 10 10 10 9 0 13 5 10 10 -4 6 5 10 20 10
15 0 39 8 53 19 15 10 37 21 49 25 18 6 21 4 18 -14 -2 -12 0 -18 6 -14 18 10
38 -16 33 -44 -4 -25 -3 -25 10 -9 7 10 22 20 32 22 11 2 30 7 43 11 22 7 24
5 18 -23 -4 -22 -2 -30 8 -30 8 0 18 9 21 20 3 11 20 39 37 63 26 37 31 54 35
124 6 103 18 113 15 12 -2 -68 -1 -71 7 -32 4 25 12 56 18 70 5 14 7 31 5 37
-3 7 4 41 15 75 41 129 54 178 63 240 5 34 13 80 16 100 3 21 1 43 -5 51 -6 7
-15 40 -21 73 -10 63 -48 141 -62 127 -5 -5 -3 -64 3 -133 18 -196 15 -243
-17 -369 -28 -111 -47 -141 -26 -41 12 56 14 134 3 110 -4 -8 -16 -25 -26 -37
-11 -12 -21 -36 -23 -54 -2 -18 -9 -40 -17 -48 -7 -9 -11 -21 -9 -28 2 -6 -6
-17 -18 -23 -14 -8 -19 -8 -15 -1 4 6 -6 3 -23 -7 -19 -10 -26 -19 -18 -24 6
-4 15 -4 19 -2 4 3 8 0 8 -6 0 -8 -9 -10 -26 -6 -21 6 -25 4 -21 -7 3 -8 -3
-24 -14 -36 -11 -11 -19 -24 -18 -28 1 -5 -17 -19 -40 -32 -36 -20 -47 -22
-67 -12 -15 7 -23 7 -19 1 3 -5 0 -10 -8 -10 -26 0 -28 14 -5 32 19 15 20 18
6 18 -10 0 -18 5 -18 10 0 6 7 10 15 10 8 0 15 4 15 10 0 6 -9 6 -23 1 -34
-13 -55 2 -34 24 21 20 21 22 2 22 -8 0 -15 -5 -16 -11 -1 -6 -4 0 -8 13 -4
14 -13 27 -20 29 -8 3 -11 0 -7 -6 3 -5 -5 -13 -18 -16 -13 -3 -32 -9 -42 -13
-10 -4 -15 -2 -11 3 3 6 2 16 -4 24 -7 13 -9 12 -9 -2 0 -11 -7 -18 -17 -18
-14 0 -15 2 -4 9 11 7 10 11 -5 20 -12 6 -14 11 -5 11 8 0 11 7 8 20 -6 24 8
27 21 3 9 -14 11 -14 21 6 7 12 10 30 6 40 -4 14 7 23 55 45 32 15 64 25 70
21 5 -3 10 -1 10 4 0 6 -4 11 -9 11 -26 0 -14 30 25 61 24 19 43 37 44 41 0
12 -34 -4 -60 -28 -34 -31 -90 -43 -86 -19 1 9 9 21 17 26 12 7 12 9 -1 10
-10 0 -8 3 5 9 11 5 14 9 7 9 -9 1 -10 6 -3 20 6 10 8 21 5 24 -3 3 6 13 20
24 45 31 222 205 204 199 -10 -3 -26 -9 -35 -12 -10 -3 -6 3 10 13 15 11 24
23 20 26 -3 4 -2 7 4 7 6 0 16 13 23 30 7 16 16 27 21 24 5 -3 6 1 3 9 -3 8 2
17 10 20 9 4 16 11 16 17 0 6 7 18 15 27 8 8 12 20 8 26 -4 6 0 8 10 4 12 -5
17 -1 17 13 0 10 5 22 10 25 6 4 10 12 9 18 -5 38 2 56 17 50 13 -5 15 -2 9
17 -5 17 -4 20 5 15 8 -5 11 -3 8 6 -3 8 3 25 13 38 21 26 25 46 8 35 -6 -3
-15 0 -21 7 -6 10 -8 7 -6 -11 2 -19 -2 -26 -19 -28 -17 -3 -21 0 -17 12 5 12
2 15 -10 10 -9 -3 -16 -10 -16 -15 0 -5 -7 -9 -16 -9 -8 0 -13 4 -10 8 3 5 -1
9 -9 9 -19 0 -19 -11 0 -27 8 -7 15 -18 15 -24 0 -8 -2 -8 -8 1 -10 16 -48 21
-44 6 1 -7 -2 -13 -7 -13 -5 0 -13 -9 -16 -20 -5 -15 -12 -19 -26 -15 -14 5
-17 3 -13 -9 3 -9 1 -16 -5 -16 -15 0 -51 -41 -45 -52 3 -4 -4 -8 -15 -8 -15
0 -21 -7 -21 -22 0 -15 -3 -19 -8 -11 -6 9 -12 7 -25 -7 -19 -22 -63 -27 -70
-7 -4 9 -6 9 -6 -1 -1 -10 -5 -10 -21 0 -15 10 -24 10 -38 1 -11 -6 -24 -8
-32 -3 -8 5 -27 6 -42 3 -22 -4 -28 -2 -28 11 0 13 -6 15 -27 10 -22 -6 -25
-4 -20 10 4 11 3 15 -4 11 -6 -4 -8 -13 -5 -21 7 -18 -12 -28 -28 -15 -7 6
-15 8 -18 5 -3 -2 -8 2 -12 11 -4 10 2 19 17 25 l22 9 -22 0 c-13 1 -23 -3
-23 -8 0 -4 -11 -6 -25 -3 -20 3 -25 0 -25 -17 0 -23 -10 -27 -26 -11 -8 8
-19 7 -39 0 -21 -8 -26 -8 -23 2 3 7 2 22 -3 33 -7 17 -8 16 -8 -7 -1 -19 -6
-28 -17 -28 -10 0 -14 6 -10 15 3 8 1 15 -5 15 -5 0 -14 -10 -19 -22 -8 -22
-9 -22 -9 5 -1 28 -21 39 -21 11 0 -14 -3 -14 -15 -4 -12 10 -18 10 -32 -1
-15 -12 -16 -12 -10 4 3 9 2 17 -3 17 -6 0 -10 -3 -10 -7 0 -5 -11 -9 -25 -9
-16 -1 -25 3 -25 13 0 9 -6 13 -15 9 -25 -9 -45 5 -45 30 0 16 -8 28 -25 36
-14 6 -25 15 -25 20 0 4 11 9 25 9 54 3 66 12 36 28 -16 9 -19 9 -16 -2 4 -8
-3 -13 -15 -14 -11 -1 -20 3 -20 10 0 8 -3 8 -12 -1 -19 -19 -33 -14 -15 6 15
16 15 20 1 40 -14 20 -14 22 0 22 9 0 16 -5 16 -12 0 -9 3 -9 12 0 9 9 7 17
-8 33 -19 22 -19 22 3 15 18 -6 22 -4 17 8 -3 9 -11 16 -18 16 -6 0 -3 5 6 11
9 5 15 16 12 23 -3 8 4 19 15 26 14 7 21 7 21 0 0 -19 20 -10 32 15 6 13 16
22 21 18 7 -4 8 1 3 12 -5 13 -3 15 6 8 7 -6 20 -10 28 -10 9 0 47 -8 85 -19
63 -17 67 -19 40 -24 -16 -4 -35 -3 -41 2 -7 5 -15 -2 -23 -19 -10 -22 -10
-28 4 -35 10 -6 13 -14 6 -25 -13 -23 -2 -54 18 -49 25 7 181 17 283 17 50 1
101 5 112 9 17 7 18 9 4 9 -10 1 -18 8 -18 17 0 16 -27 48 -42 50 -4 1 -13 2
-19 3 -5 0 -7 6 -3 12 4 8 -3 9 -25 4 -22 -5 -31 -3 -31 6 0 10 -3 10 -12 1
-17 -17 -119 -16 -117 1 4 35 -1 40 -37 34 -25 -4 -40 -1 -53 11 -10 9 -24 18
-32 20 -7 2 -17 9 -21 15 -4 7 -8 8 -8 3 0 -12 -30 14 -30 26 0 9 157 5 188
-4 4 -2 27 3 52 10 25 6 81 16 125 22 79 11 80 10 102 -15 17 -19 32 -25 63
-25 24 0 47 -7 58 -17 31 -30 60 -44 64 -31 3 8 10 8 25 0 24 -13 31 0 29 57
-1 50 -55 76 -156 77 -48 0 -110 10 -172 26 -88 24 -102 26 -167 15 -55 -8
-80 -8 -105 1 -30 11 -41 9 -119 -24 -69 -29 -90 -34 -101 -25 -11 9 -12 20
-5 44 11 40 12 37 -6 37 -8 0 -15 -7 -15 -15 0 -12 -5 -10 -20 5 -19 19 -22
19 -45 4 -14 -9 -30 -24 -36 -33 -8 -13 -9 -12 -4 7 4 12 4 22 1 22 -13 0 -55
-44 -50 -51 7 -12 -21 -51 -30 -42 -4 4 -4 0 -1 -9 4 -9 2 -19 -4 -23 -16 -10
-13 -25 5 -25 11 0 15 -6 11 -20 -3 -11 -1 -17 4 -14 5 3 12 -3 15 -13 3 -10
9 -25 13 -33 4 -8 2 -33 -5 -56 -12 -39 -11 -41 7 -37 14 4 19 0 19 -13 0 -16
-2 -17 -10 -4 -8 12 -10 11 -10 -7 0 -28 -24 -21 -59 16 -14 14 -28 25 -32 24
-4 -1 -10 11 -14 27 -8 37 -24 40 -17 4 3 -18 1 -25 -6 -20 -6 3 -17 -1 -25
-9 -20 -20 -29 -19 -25 3 2 11 -4 18 -18 20 -18 3 -21 -1 -16 -24 3 -18 1 -25
-6 -20 -6 4 -9 13 -5 21 3 9 -1 15 -11 15 -9 0 -15 6 -14 13 2 7 -5 11 -17 9
-27 -5 -29 -8 -20 -29 7 -17 8 -17 14 2 6 15 9 9 15 -25 5 -34 3 -47 -10 -59
-15 -15 -16 -15 -11 1 3 9 3 18 -1 20 -15 6 -52 76 -52 97 0 11 -5 21 -11 21
-6 0 -9 6 -6 13 2 6 -5 27 -15 45 -10 18 -15 38 -12 44 5 7 2 8 -6 3 -10 -6
-12 -4 -7 8 3 9 2 19 -4 23 -5 3 -7 14 -4 25 4 10 2 19 -3 19 -5 0 -9 22 -8
49 1 27 -2 47 -6 45 -4 -3 -7 19 -7 48 1 29 -1 61 -6 71 -4 9 -5 24 -2 32 4 8
-5 52 -19 99 -24 80 -24 86 -9 110 12 18 15 36 10 64 -4 28 -2 42 9 51 11 10
16 9 23 -3 7 -12 11 -12 32 5 20 17 22 21 10 36 -8 10 0 6 18 -8 l31 -26 171
2 c99 2 169 -1 165 -6 -3 -5 5 -6 18 -1 13 5 34 7 48 6 30 -3 90 16 109 34 8
8 18 9 25 4 10 -8 85 -8 89 0 1 1 13 26 26 53 26 54 29 63 33 112 4 55 18 64
89 61 49 -2 64 -7 65 -18 2 -42 18 -80 47 -107 35 -33 119 -68 142 -59 8 3 15
2 15 -3 0 -4 21 -9 48 -10 26 -1 55 -4 65 -7 19 -6 61 28 50 40 -4 3 5 6 19 6
39 0 101 29 95 44 -3 8 -1 18 5 24 6 6 6 12 -1 16 -6 4 -11 13 -11 19 0 7 9 1
20 -13 l20 -25 18 21 c9 11 32 26 50 32 37 13 92 49 91 60 -1 4 0 9 1 12 1 3
3 20 5 38 4 42 12 51 22 26 7 -19 32 -43 45 -44 4 0 5 6 3 13 -3 6 -1 26 4 42
l9 30 10 -25 c7 -18 6 -29 -2 -39 -8 -11 -8 -13 2 -7 7 4 12 1 12 -8 0 -9 -6
-16 -12 -16 -10 0 -9 -3 1 -9 9 -6 10 -10 2 -16 -8 -5 -5 -13 11 -26 19 -17
20 -23 10 -39 -7 -12 -8 -20 -2 -20 5 0 16 -16 24 -35 21 -50 36 -43 37 18 l1
52 10 -45 c12 -60 14 -304 4 -457 -7 -109 -6 -123 8 -123 9 0 16 -4 16 -10 0
-5 -7 -7 -15 -4 -12 5 -15 -2 -15 -30 0 -31 3 -36 23 -36 34 0 65 -25 50 -40
-9 -10 -18 -9 -42 3 l-30 15 -6 -36 c-14 -96 -41 -194 -71 -264 -35 -79 -45
-123 -22 -100 16 16 47 15 77 -2 l24 -13 -42 -29 c-40 -26 -44 -27 -56 -11
-12 17 -13 17 -19 1 -4 -10 0 -24 9 -33 22 -22 112 -18 132 6 28 36 65 126 59
147 -5 21 -5 21 10 1 13 -18 14 -17 8 13 -5 25 -3 32 7 30 9 -2 13 4 11 15 -2
9 2 17 8 17 5 0 10 6 10 13 0 7 10 18 22 26 21 13 21 14 2 28 -12 9 -15 16 -8
21 37 24 59 155 34 202 -14 26 -2 53 22 47 22 -6 77 18 56 25 -8 3 -4 9 12 18
44 22 62 42 48 52 -10 6 -7 10 8 14 19 5 65 82 65 109 0 6 7 17 14 25 24 27
46 100 35 119 -5 10 -7 27 -4 38 3 11 -3 51 -15 88 l-20 68 26 31 26 31 -6
-32 c-4 -18 -2 -35 3 -38 6 -4 13 8 16 25 6 26 32 54 45 47 2 -1 -4 5 -15 14
-18 16 -18 17 20 30 21 7 49 12 61 10 20 -2 63 33 63 51 0 5 8 8 18 6 13 -2
17 4 18 25 1 15 6 33 13 40 14 14 14 60 -1 75 -9 9 -9 18 0 37 14 30 16 72 3
79 -4 3 -6 -6 -3 -20 6 -35 -28 -68 -90 -89 -28 -9 -53 -14 -56 -11 -3 3 2 6
12 6 9 0 14 5 11 10 -3 6 -1 10 5 10 7 0 5 7 -4 16 -10 9 -16 33 -16 60 0 24
-4 44 -9 44 -5 0 -11 9 -14 20 -3 11 -1 20 4 20 5 0 9 7 9 16 0 12 -5 11 -19
-7 -14 -17 -17 -29 -10 -41 6 -12 6 -26 -1 -40 -11 -22 -10 -22 4 -4 15 19 16
17 16 -27 0 -37 -3 -45 -15 -41 -8 4 -13 9 -11 13 3 3 -12 6 -32 6 -41 0 -102
22 -102 37 0 5 9 12 19 15 11 3 22 12 25 20 3 8 11 11 17 7 8 -5 9 -3 5 5 -5
7 -1 20 7 29 8 9 29 46 45 81 25 53 28 67 19 84 -9 15 -9 21 1 24 6 3 12 13
12 23 0 15 -7 12 -35 -16 -52 -50 -72 -43 -27 9 21 24 34 121 15 105 -11 -9
-13 -2 -9 37 3 35 0 52 -11 64 -14 14 -15 13 -9 -6 7 -23 -1 -53 -15 -53 -5 0
-9 12 -9 26 0 22 -3 24 -14 15 -12 -10 -14 -1 -12 58 1 38 -2 67 -6 65 -8 -5
31 88 41 96 16 13 42 75 33 78 -7 2 -7 13 0 34 14 39 4 169 -16 228 -9 25 -27
57 -41 72 -13 15 -33 41 -45 60 -14 23 -27 33 -45 33 -14 1 -25 -3 -25 -8 0
-4 -4 -5 -10 -2 -5 3 -10 1 -10 -5 0 -7 6 -10 14 -7 18 7 82 -108 66 -118 -6
-3 -10 -1 -10 5 0 30 -149 146 -177 138 -5 -1 -19 2 -31 6 -17 6 -22 13 -19
27 3 10 1 17 -4 13 -5 -3 -9 0 -9 7 0 8 -4 8 -15 -1 -12 -10 -15 -9 -15 6 0
13 -3 15 -11 7 -13 -13 -45 1 -67 30 -15 20 -33 23 -29 5 2 -14 -5 -14 -40 -4
-18 6 -20 4 -16 -14 3 -12 0 -20 -6 -20 -7 0 -10 4 -6 9 5 9 -20 21 -54 27 -8
2 -18 10 -23 18 -13 23 -27 20 -21 -4 5 -19 3 -20 -23 -10 -35 14 -65 40 -59
51 3 4 1 10 -4 13 -19 12 -22 -16 -4 -36 18 -21 18 -21 -3 -16 -11 3 -29 -1
-39 -8 -22 -16 -39 -18 -30 -4 4 6 -5 10 -21 10 -51 0 -15 15 44 19 7 1 10 6
7 12 -4 6 1 16 10 23 17 12 17 13 1 19 -10 4 -22 5 -27 1 -5 -3 -9 0 -9 5 0 6
-6 11 -13 11 -17 0 -80 31 -74 36 5 5 121 -21 139 -32 7 -4 31 -21 53 -37 l40
-29 -43 39 c-47 43 -118 73 -172 73 -37 0 -100 -46 -113 -84 -5 -12 -13 -16
-23 -12 -10 4 -22 -1 -30 -11 -7 -10 -14 -13 -14 -6 0 6 5 15 10 18 6 4 8 11
5 16 -4 5 0 9 8 9 8 0 30 14 48 31 19 18 26 26 17 19 -10 -7 -18 -9 -18 -5 0
4 -11 0 -25 -9 -18 -12 -25 -13 -25 -4 0 9 -3 9 -10 -2 -5 -8 -12 -11 -16 -7
-4 3 -2 12 4 20 7 8 7 18 2 27 -8 12 -10 13 -10 1 0 -11 -4 -10 -19 3 -11 10
-24 15 -30 12 -5 -3 -11 0 -14 6 -3 10 -7 10 -20 -1 -9 -7 -15 -17 -12 -21 3
-4 -6 -7 -20 -7 -14 0 -22 4 -18 10 3 6 1 7 -6 3 -6 -4 -17 -3 -24 2 -43 35
-191 58 -246 38z m386 -78 c-3 -8 -6 -5 -6 6 -1 11 2 17 5 13 3 -3 4 -12 1
-19z m-267 -18 c0 -5 -4 -10 -10 -10 -5 0 -10 5 -10 10 0 6 5 10 10 10 6 0 10
-4 10 -10z m274 -55 c-12 -9 -14 -14 -6 -15 7 0 10 -5 6 -11 -4 -8 -9 -7 -15
2 -12 20 -11 25 8 45 12 11 18 13 21 5 2 -7 -4 -19 -14 -26z m-327 -27 c-2
-13 -4 -5 -4 17 -1 22 1 32 4 23 2 -10 2 -28 0 -40z m478 33 c0 -13 17 -20 53
-23 6 -1 12 -5 12 -10 0 -10 -81 1 -97 14 -6 5 -9 16 -6 24 7 18 38 14 38 -5z
m-845 -1 c0 -5 -2 -10 -4 -10 -3 0 -8 5 -11 10 -3 6 -1 10 4 10 6 0 11 -4 11
-10z m271 -13 c-10 -9 -11 -8 -5 6 3 10 9 15 12 12 3 -3 0 -11 -7 -18z m526
-13 c-3 -3 -12 -4 -19 -1 -8 3 -5 6 6 6 11 1 17 -2 13 -5z m-952 -34 c-28 -12
-57 -12 -50 0 3 6 21 10 38 9 27 0 29 -2 12 -9z m1240 0 c3 -5 1 -10 -4 -10
-6 0 -11 5 -11 10 0 6 2 10 4 10 3 0 8 -4 11 -10z m-1299 -15 c9 -8 11 -15 5
-15 -5 0 -12 4 -16 10 -3 5 -13 7 -23 4 -14 -5 -15 -4 -2 5 19 14 19 14 36 -4z
m1489 -5 c3 -6 -1 -7 -9 -4 -18 7 -21 14 -7 14 6 0 13 -4 16 -10z m-405 -10
c0 -5 -4 -10 -10 -10 -5 0 -10 5 -10 10 0 6 5 10 10 10 6 0 10 -4 10 -10z
m340 -20 c-35 -11 -79 -12 -62 -1 7 4 30 8 50 8 32 1 34 0 12 -7z m-1560 -14
c0 -2 -7 -7 -16 -10 -8 -3 -12 -2 -9 4 6 10 25 14 25 6z m100 -4 c0 -5 -12
-14 -26 -21 -17 -7 -24 -17 -20 -27 3 -8 2 -12 -4 -9 -9 5 -11 0 -9 -21 0 -10
-49 -44 -63 -43 -7 0 -3 4 9 9 12 5 27 24 33 42 7 19 26 44 44 56 35 25 36 25
36 14z m60 -17 c-7 -9 -15 -13 -17 -11 -7 7 7 26 19 26 6 0 6 -6 -2 -15z
m1399 -4 c-13 -11 -26 -15 -27 -10 -2 5 -9 7 -15 3 -7 -3 -3 2 7 10 11 9 28
16 39 16 17 0 17 -2 -4 -19z m147 -18 c-8 -8 -36 5 -36 17 0 7 6 7 21 0 11 -7
18 -14 15 -17z m-1733 -3 c-3 -11 -9 -20 -14 -20 -10 0 -12 24 -2 33 13 13 21
7 16 -13z m867 -28 c0 -15 -2 -15 -10 -2 -13 20 -13 33 0 25 6 -3 10 -14 10
-23z m920 18 c0 -5 -4 -10 -10 -10 -5 0 -10 5 -10 10 0 6 5 10 10 10 6 0 10
-4 10 -10z m270 -11 c0 -6 -4 -7 -10 -4 -5 3 -10 11 -10 16 0 6 5 7 10 4 6 -3
10 -11 10 -16z m-1905 1 c-3 -6 1 -7 9 -4 9 3 16 1 16 -5 0 -6 -5 -11 -12 -11
-18 0 -78 -50 -78 -64 0 -8 -7 -17 -16 -20 -8 -3 -13 -10 -10 -15 3 -5 -1 -15
-10 -22 -8 -7 -24 -31 -35 -53 -11 -23 -13 -32 -5 -21 9 11 19 25 23 30 5 6
22 28 38 50 17 22 37 45 45 52 19 14 35 5 20 -12 -6 -7 -13 -22 -15 -33 -3
-16 1 -20 13 -16 11 4 9 -1 -7 -15 -13 -12 -21 -25 -17 -28 4 -4 16 2 27 14
17 16 19 25 11 39 -6 11 -7 25 -2 34 14 27 -3 44 -31 30 -23 -11 -23 -10 -4 4
11 8 26 20 33 26 9 8 12 7 12 -5 0 -8 4 -15 10 -15 5 0 7 7 4 15 -4 8 -3 15 0
15 4 0 11 -12 16 -26 11 -29 -6 -77 -20 -54 -5 7 -10 8 -14 2 -6 -10 22 -39
33 -34 3 1 6 -1 7 -5 0 -5 4 -16 9 -27 6 -14 2 -23 -16 -38 l-24 -19 30 7 30
6 -28 -20 c-15 -10 -35 -29 -44 -42 -12 -17 -17 -19 -24 -9 -4 7 -5 18 -1 24
12 18 10 65 -2 65 -7 0 -21 -7 -32 -15 -10 -8 -26 -14 -34 -14 -10 0 -11 2 -2
6 6 2 12 11 12 19 0 8 4 14 8 14 5 0 14 11 20 25 11 24 10 25 -7 15 -23 -12
-55 -56 -65 -87 -4 -13 -11 -23 -16 -23 -15 0 -21 36 -11 63 14 35 2 41 -28
15 -14 -13 -10 -6 8 15 22 23 30 37 20 37 -8 1 -3 9 14 21 15 12 24 26 20 32
-3 7 -3 9 2 5 4 -4 17 4 28 18 29 37 111 85 92 54z m1042 -6 c-3 -3 -12 -4
-19 -1 -8 3 -5 6 6 6 11 1 17 -2 13 -5z m-846 -37 c-8 -8 -11 -7 -11 4 0 20
13 34 18 19 3 -7 -1 -17 -7 -23z m1394 3 c9 -17 12 -36 8 -43 -4 -7 -6 -20 -4
-31 1 -10 -2 -16 -7 -12 -5 3 -12 24 -16 46 -3 23 -10 38 -15 35 -5 -3 -7 4
-4 15 7 28 20 25 38 -10z m247 -13 c9 -18 8 -19 -18 -13 -16 4 -36 14 -44 23
-13 14 -13 14 7 4 19 -10 20 -8 15 12 -5 20 -4 21 12 8 9 -8 22 -23 28 -34z
m-808 25 c2 -4 -8 -9 -24 -10 -16 -1 -31 2 -35 8 -4 6 6 10 24 10 16 0 32 -4
35 -8z m251 -1 c3 -6 -4 -15 -16 -21 -15 -8 -19 -9 -15 -1 5 7 -2 11 -16 12
-23 1 -23 1 2 9 35 11 38 11 45 1z m-1112 -18 c-4 -11 -3 -14 5 -9 7 4 12 2
12 -5 0 -8 3 -9 13 0 8 6 17 8 20 4 4 -3 7 -1 7 5 0 7 5 12 12 12 6 0 -1 -13
-17 -30 -16 -16 -24 -30 -19 -30 6 0 11 -6 11 -14 0 -8 -8 -11 -19 -8 -18 4
-26 -13 -9 -20 11 -4 2 -58 -10 -58 -5 0 -5 7 -2 17 4 11 3 14 -5 9 -7 -4 -12
-1 -13 6 0 7 -2 23 -5 36 -2 14 1 22 10 22 21 0 27 28 9 38 -14 8 -13 42 1 42
3 0 2 -7 -1 -17z m777 -13 c0 -5 -5 -10 -11 -10 -5 0 -7 5 -4 10 3 6 8 10 11
10 2 0 4 -4 4 -10z m-1120 -9 c0 -16 -15 -20 -41 -14 l-24 7 25 7 c36 10 40
10 40 0z m890 -3 c0 -4 -4 -8 -9 -8 -6 0 -12 4 -15 8 -3 5 1 9 9 9 8 0 15 -4
15 -9z m765 3 c3 -5 1 -12 -5 -16 -5 -3 -10 1 -10 9 0 18 6 21 15 7z m-1243
-27 c-7 -12 -11 -13 -17 -4 -4 7 -2 16 6 21 18 11 23 4 11 -17z m179 -16 c-28
-23 -51 -46 -51 -52 0 -5 6 -3 13 6 17 23 57 33 57 15 0 -16 -54 -88 -67 -89
-4 0 -18 -16 -31 -34 -12 -19 -26 -34 -29 -34 -4 0 -2 5 4 11 8 8 8 19 0 40
-10 25 -8 31 10 48 12 11 26 35 32 54 7 22 24 41 49 55 61 35 68 25 13 -20z
m1575 -25 c22 -77 15 -199 -17 -268 -31 -66 -39 -30 -9 40 26 60 29 194 6 249
-8 20 -11 36 -6 36 5 0 17 -26 26 -57z m-1381 37 c3 -5 1 -10 -4 -10 -6 0 -11
5 -11 10 0 6 2 10 4 10 3 0 8 -4 11 -10z m-149 -28 c-18 -16 -18 -16 -6 6 6
13 14 21 18 18 3 -4 -2 -14 -12 -24z m-661 8 c-3 -5 -13 -10 -21 -10 -8 0 -14
5 -14 10 0 6 9 10 21 10 11 0 17 -4 14 -10z m538 -5 c-3 -9 -8 -14 -10 -11 -3
3 -2 9 2 15 9 16 15 13 8 -4z m312 -32 l18 -28 -21 19 c-12 11 -22 23 -22 28
0 14 7 9 25 -19z m1222 -5 c-3 -8 -6 -5 -6 6 -1 11 2 17 5 13 3 -3 4 -12 1
-19z m-1640 -50 c-3 -20 -4 -21 -11 -5 -5 9 -5 29 0 45 7 25 8 26 11 5 3 -13
3 -33 0 -45z m234 42 c-7 -4 -13 -19 -15 -33 -1 -15 -6 -30 -9 -34 -18 -17 -4
-24 14 -7 22 19 22 19 11 -2 -6 -11 -18 -27 -27 -34 -13 -11 -15 -10 -9 4 4 9
3 16 -2 15 -5 -1 -19 -1 -32 0 l-23 1 21 28 c51 66 64 80 73 75 5 -3 4 -9 -2
-13z m1149 5 c0 -2 -9 -9 -20 -15 -16 -9 -20 -8 -20 5 0 8 9 15 20 15 11 0 20
-2 20 -5z m-225 -15 c-3 -5 -11 -10 -16 -10 -6 0 -7 5 -4 10 3 6 11 10 16 10
6 0 7 -4 4 -10z m169 -5 c-4 -8 -10 -15 -15 -15 -4 0 -6 7 -3 15 4 8 10 15 15
15 4 0 6 -7 3 -15z m150 1 c-21 -15 -30 -14 -19 3 3 6 14 11 23 11 13 0 13 -2
-4 -14z m-2074 1 c0 -2 -12 -14 -27 -28 l-28 -24 24 28 c23 25 31 32 31 24z
m1065 -32 l30 -25 -32 16 c-18 8 -35 19 -38 25 -11 17 10 9 40 -16z m-733 -42
c-6 -9 -18 -18 -28 -19 -16 -2 -15 0 5 17 29 23 35 24 23 2z m106 5 c-2 -7 3
-12 10 -10 9 2 10 -3 4 -15 -5 -10 -7 -23 -5 -30 2 -7 0 -20 -6 -30 -9 -16
-10 -16 -11 4 0 25 -16 39 -23 21 -3 -10 -7 -10 -20 1 -24 19 -21 29 16 51 38
24 38 23 35 8z m216 -13 c3 -8 1 -15 -3 -15 -5 0 -11 7 -15 15 -3 8 -1 15 3
15 5 0 11 -7 15 -15z m509 -62 c32 -16 36 -21 24 -31 -11 -10 -24 -3 -65 36
-29 26 -52 51 -52 56 0 6 12 -2 28 -16 15 -14 44 -34 65 -45z m-396 35 c-3 -8
-6 -5 -6 6 -1 11 2 17 5 13 3 -3 4 -12 1 -19z m-1032 -30 c-2 -18 -3 -41 -4
-51 -1 -10 -6 -15 -12 -11 -6 3 -8 15 -6 26 4 14 2 18 -9 14 -17 -6 -11 7 14
37 20 23 20 22 17 -15z m45 17 c0 -8 -4 -15 -10 -15 -5 0 -7 7 -4 15 4 8 8 15
10 15 2 0 4 -7 4 -15z m890 -29 c0 -26 -6 -18 -14 19 -5 22 -4 26 4 15 5 -8
10 -24 10 -34z m-700 24 c0 -5 -8 -10 -17 -10 -15 0 -16 2 -3 10 19 12 20 12
20 0z m-322 -39 c-23 -33 -66 -63 -73 -51 -4 6 13 29 37 50 42 39 63 40 36 1z
m292 15 c0 -3 -4 -8 -10 -11 -5 -3 -10 -1 -10 4 0 6 5 11 10 11 6 0 10 -2 10
-4z m860 -10 c0 -3 -4 -8 -10 -11 -5 -3 -10 -1 -10 4 0 6 5 11 10 11 6 0 10
-2 10 -4z m-1043 -38 c-3 -8 -6 -5 -6 6 -1 11 2 17 5 13 3 -3 4 -12 1 -19z
m1470 16 c-3 -3 -12 -4 -19 -1 -8 3 -5 6 6 6 11 1 17 -2 13 -5z m-427 -49 c0
-8 -4 -15 -10 -15 -5 0 -7 7 -4 15 4 8 8 15 10 15 2 0 4 -7 4 -15z m1364 0
c-4 -8 -11 -15 -16 -15 -6 0 -5 6 2 15 7 8 14 15 16 15 2 0 1 -7 -2 -15z
m-1329 -15 c-3 -5 -10 -10 -16 -10 -5 0 -9 5 -9 10 0 6 7 10 16 10 8 0 12 -4
9 -10z m-1238 -6 c-3 -3 -12 -4 -19 -1 -8 3 -5 6 6 6 11 1 17 -2 13 -5z m13
-54 c0 -5 -5 -10 -11 -10 -5 0 -7 5 -4 10 3 6 8 10 11 10 2 0 4 -4 4 -10z
m-169 -241 c-9 -22 -10 -22 -10 -3 -1 11 2 24 6 27 12 12 14 0 4 -24z m59 21
c0 -5 -4 -10 -10 -10 -5 0 -10 5 -10 10 0 6 5 10 10 10 6 0 10 -4 10 -10z
m-20 -42 c0 -5 -4 -8 -10 -8 -5 0 -10 10 -10 23 0 18 2 19 10 7 5 -8 10 -18
10 -22z m2880 -28 c0 -5 -7 -10 -15 -10 -8 0 -15 5 -15 10 0 6 7 10 15 10 8 0
15 -4 15 -10z m-2893 -42 c-3 -7 -5 -2 -5 12 0 14 2 19 5 13 2 -7 2 -19 0 -25z
m2909 -22 c-17 -37 -36 -55 -36 -36 0 6 -4 8 -10 5 -5 -3 -10 -1 -10 5 0 7 8
14 19 17 10 2 24 16 31 29 20 37 25 20 6 -20z m-2102 22 c-3 -4 -11 -5 -19 -1
-21 7 -19 12 4 10 11 0 18 -5 15 -9z m-324 -18 c0 -5 -4 -10 -9 -10 -6 0 -13
5 -16 10 -3 6 1 10 9 10 9 0 16 -4 16 -10z m37 4 c-3 -3 -12 -4 -19 -1 -8 3
-5 6 6 6 11 1 17 -2 13 -5z m1097 -20 c11 -4 16 -19 16 -51 0 -38 2 -43 14
-34 11 9 15 6 18 -13 4 -21 1 -25 -16 -23 -24 2 -29 -24 -7 -31 8 -3 11 0 7 7
-4 6 -3 11 3 11 5 0 15 -8 20 -17 6 -11 11 -13 11 -5 0 7 10 17 23 22 12 5 16
9 9 9 -19 1 12 31 32 31 8 0 17 4 20 9 3 5 24 7 46 4 27 -4 40 -2 40 6 0 7 4
10 9 7 16 -10 41 5 41 24 0 12 10 19 30 22 38 6 40 4 41 -46 l1 -41 11 35 c6
19 12 37 13 38 6 8 44 -10 39 -18 -3 -4 4 -6 14 -3 12 3 17 11 14 19 -3 8 0
14 6 14 6 0 11 -11 11 -25 0 -13 8 -29 18 -34 9 -6 12 -11 5 -11 -6 0 -19 7
-28 16 -9 9 -19 14 -22 10 -4 -3 2 -12 12 -20 12 -8 15 -18 10 -27 -7 -11 -5
-11 10 1 10 8 16 10 12 4 -4 -7 1 -18 10 -25 14 -12 15 -11 9 9 -14 43 21 20
52 -35 8 -15 8 -23 1 -23 -5 0 -7 -5 -4 -10 4 -6 11 -7 17 -4 7 5 9 1 5 -9 -3
-8 1 -21 9 -27 8 -7 14 -18 14 -25 0 -7 12 -33 26 -56 14 -24 23 -36 20 -26
-3 10 -2 15 3 12 6 -3 9 -14 8 -24 -1 -16 -8 -18 -46 -14 -25 3 -53 9 -63 14
-26 14 -34 11 -12 -6 18 -13 18 -14 -6 -8 -14 3 -33 12 -42 21 -13 11 -24 12
-47 4 -21 -8 -31 -7 -33 0 -5 14 -88 17 -88 3 0 -5 -5 -3 -10 5 -6 9 -10 10
-10 3 0 -7 -9 -17 -20 -23 -16 -9 -18 -8 -14 5 4 8 2 15 -4 15 -5 0 -12 -7
-16 -15 -7 -18 -36 -20 -37 -2 0 10 -2 10 -6 0 -2 -7 -11 -13 -19 -13 -8 0
-14 -4 -14 -8 0 -5 -16 -13 -35 -19 -19 -6 -33 -7 -29 -2 3 5 -2 9 -11 9 -9 0
-14 -4 -11 -9 3 -4 -5 -6 -18 -4 -13 3 -27 -1 -31 -8 -5 -8 -4 -10 3 -5 7 4
12 2 12 -4 0 -7 -7 -10 -15 -6 -18 6 -75 -12 -75 -25 0 -5 -7 -9 -15 -9 -8 0
-15 -5 -15 -11 0 -5 4 -8 9 -5 11 7 5 -44 -8 -57 -5 -5 -28 -7 -54 -3 -39 6
-44 10 -42 30 3 19 -1 23 -18 18 -16 -4 -19 -2 -14 12 4 10 3 15 -3 11 -6 -3
-10 -13 -10 -21 0 -8 -4 -12 -10 -9 -5 3 -10 15 -10 26 0 18 -4 20 -30 14 -20
-4 -37 -1 -52 9 -12 9 -18 16 -13 16 12 1 -25 23 -42 26 -7 1 -13 -2 -13 -7 0
-5 8 -10 18 -10 16 -1 16 -2 0 -6 -10 -2 -25 3 -35 12 -11 11 -26 15 -45 11
-17 -3 -28 -1 -28 5 0 7 -10 5 -25 -5 -23 -15 -24 -15 -18 1 3 10 10 24 16 31
12 15 -6 16 -34 2 -28 -16 -23 -3 14 32 17 18 24 26 15 19 -14 -10 -16 -9 -11
8 3 12 10 18 17 14 6 -4 5 1 -3 11 -13 15 -12 21 3 47 9 16 14 34 11 39 -3 6
3 10 14 10 11 0 23 5 26 10 3 6 14 10 23 10 15 0 15 -2 2 -11 -11 -7 -1 -8 34
-4 27 3 54 9 59 12 6 3 7 1 3 -5 -4 -7 -1 -12 8 -12 8 0 18 4 21 10 7 11 54 8
74 -4 7 -4 10 -14 7 -21 -3 -8 6 -14 25 -17 19 -3 28 -1 26 6 -3 6 2 17 9 24
12 11 14 9 14 -10 0 -17 2 -20 9 -9 5 8 7 21 3 29 -3 10 -1 13 6 8 7 -4 12 -2
12 5 0 8 5 7 17 -2 11 -10 14 -10 9 -1 -4 6 -3 12 3 12 5 0 22 5 38 12 15 6
32 10 38 9 5 -1 1 7 -10 18 -12 15 -15 25 -8 32 5 5 8 28 6 49 -4 42 -4 43 21
34z m43 -46 c-3 -7 -5 -2 -5 12 0 14 2 19 5 13 2 -7 2 -19 0 -25z m228 13 c3
-5 2 -12 -3 -15 -5 -3 -9 1 -9 9 0 17 3 19 12 6z m-485 -36 c0 -7 -30 -13 -34
-7 -3 4 4 9 15 9 10 1 19 0 19 -2z m1515 -25 c-4 -6 -11 -8 -16 -5 -5 4 -9 -2
-9 -11 0 -10 -3 -15 -6 -11 -11 11 5 37 21 37 9 0 13 -5 10 -10z m-75 -35 c0
-14 -37 -45 -53 -45 -8 0 -7 4 3 10 10 6 11 10 3 10 -13 0 -14 21 -1 30 13 10
48 6 48 -5z m-1465 -5 c-3 -5 -12 -7 -20 -3 -21 7 -19 13 6 13 11 0 18 -4 14
-10z m1508 -84 c-21 -29 -69 -49 -90 -38 -11 7 -7 14 21 35 67 52 106 53 69 3z
m-2923 -86 c0 -5 -4 -10 -10 -10 -5 0 -10 5 -10 10 0 6 5 10 10 10 6 0 10 -4
10 -10z m1087 -26 c2 -6 -3 -11 -12 -12 -8 -1 -21 -3 -29 -4 -16 -2 -17 -39
-1 -51 6 -5 3 -7 -8 -3 -10 3 -27 0 -37 -6 -14 -9 -22 -10 -31 -1 -8 8 -2 14
20 24 19 9 26 16 18 21 -6 4 -17 2 -24 -4 -16 -13 -17 -4 -2 23 7 13 16 18 29
14 10 -3 21 -2 24 3 8 13 49 10 53 -4z m1236 -65 c-6 -6 -17 -8 -24 -3 -9 5
-8 9 7 14 23 9 31 3 17 -11z m-1223 -4 c0 -17 -2 -18 -25 -9 -13 5 -14 8 -3
15 19 13 28 11 28 -6z m1120 2 c0 -7 -9 -13 -21 -14 -17 -2 -18 1 -9 13 15 17
30 18 30 1z m128 -61 l0 -34 -28 16 c-29 17 -31 32 -4 32 8 0 14 4 14 10 0 5
-8 6 -17 3 -16 -6 -16 -5 -4 10 19 24 39 5 39 -37z m822 26 c0 -34 -32 -67
-56 -58 -32 12 5 85 44 86 7 0 12 -12 12 -28z m-1000 -2 c0 -5 -10 -10 -22 -9
-22 0 -22 1 -3 9 11 5 21 9 23 9 1 1 2 -3 2 -9z m63 3 c-7 -2 -19 -2 -25 0 -7
3 -2 5 12 5 14 0 19 -2 13 -5z m797 -3 c13 -8 12 -11 -4 -23 -17 -13 -24 -12
-52 2 -20 10 -27 19 -20 23 16 11 58 9 76 -2z m-185 -10 c3 -5 1 -10 -4 -10
-6 0 -11 5 -11 10 0 6 2 10 4 10 3 0 8 -4 11 -10z m-650 -10 c-3 -5 2 -10 12
-11 46 -2 65 -7 76 -19 9 -10 9 -11 0 -6 -8 4 -13 1 -13 -7 0 -8 -11 -18 -25
-21 -29 -7 -103 3 -111 15 -3 5 -14 9 -25 9 -21 0 -25 15 -7 26 7 4 8 3 4 -4
-4 -7 -2 -12 4 -12 6 0 13 6 16 14 3 7 16 12 29 10 14 -1 27 2 31 7 3 5 7 9
10 9 3 0 2 -4 -1 -10z m770 -10 c3 -5 -1 -10 -9 -10 -8 0 -18 5 -21 10 -3 6 1
10 9 10 8 0 18 -4 21 -10z m115 -10 c0 -5 -9 -10 -21 -10 -11 0 -17 5 -14 10
3 6 13 10 21 10 8 0 14 -4 14 -10z m-30 -40 c0 -5 -12 -10 -26 -10 -14 0 -23
4 -19 10 3 6 15 10 26 10 10 0 19 -4 19 -10z m70 -10 c-20 -13 -50 -13 -50 0
0 6 15 10 33 10 24 0 28 -3 17 -10z m-77 -29 c17 -6 17 -8 -5 -18 -30 -13 -80
-11 -85 4 -7 19 54 28 90 14z m-3025 -26 c-25 -29 -25 -29 -34 -13 -4 7 -3 8
4 4 6 -3 16 3 22 14 6 11 15 20 20 20 6 0 0 -11 -12 -25z m1557 15 c-3 -5 -12
-7 -20 -3 -21 7 -19 13 6 13 11 0 18 -4 14 -10z m1360 0 c-3 -5 -11 -10 -16
-10 -6 0 -7 5 -4 10 3 6 11 10 16 10 6 0 7 -4 4 -10z m165 1 c0 -12 -20 -25
-27 -18 -7 7 6 27 18 27 5 0 9 -4 9 -9z m-1036 -33 c-3 -4 -9 -8 -15 -8 -5 0
-9 4 -9 8 0 5 7 9 15 9 8 0 12 -4 9 -9z m-2059 -27 c-3 -5 -1 -12 4 -16 6 -3
7 -13 4 -22 -5 -12 -2 -15 8 -11 8 3 22 -5 32 -18 10 -13 13 -24 7 -24 -5 0
-10 3 -10 8 0 4 -18 16 -40 26 -41 20 -48 34 -28 54 14 14 32 16 23 3z m91 0
c-4 -5 -1 -11 6 -13 7 -3 4 -7 -7 -12 -11 -4 -16 -4 -12 0 4 4 2 13 -4 21 -9
10 -8 13 5 13 10 0 15 -4 12 -9z m2034 -16 c0 -8 -2 -15 -4 -15 -2 0 -6 7 -10
15 -3 8 -1 15 4 15 6 0 10 -7 10 -15z m-59 -22 c13 -16 12 -17 -3 -4 -10 7
-18 15 -18 17 0 8 8 3 21 -13z m-1076 -13 c3 -5 -1 -10 -10 -10 -9 0 -13 5
-10 10 3 6 8 10 10 10 2 0 7 -4 10 -10z m-871 -31 c-3 -5 -10 -7 -15 -3 -5 3
-7 10 -3 15 3 5 10 7 15 3 5 -3 7 -10 3 -15z m2676 -80 c0 -14 -26 -11 -40 5
-6 8 -19 12 -28 9 -14 -6 -14 -5 -2 8 12 14 18 14 42 2 15 -8 28 -19 28 -24z
m-2675 -29 c3 -5 1 -10 -4 -10 -6 0 -11 5 -11 10 0 6 2 10 4 10 3 0 8 -4 11
-10z m590 -29 c-3 -6 -11 -11 -16 -11 -5 0 -4 6 3 14 14 16 24 13 13 -3z
m1900 9 c3 -5 1 -10 -4 -10 -6 0 -11 5 -11 10 0 6 2 10 4 10 3 0 8 -4 11 -10z
m261 -97 c-10 -10 -19 5 -10 18 6 11 8 11 12 0 2 -7 1 -15 -2 -18z m-276 7 c0
-5 -7 -10 -15 -10 -8 0 -15 -5 -15 -12 0 -6 -3 -9 -6 -5 -11 10 4 37 21 37 8
0 15 -4 15 -10z m66 -61 c19 -21 19 -21 0 -18 -11 2 -20 12 -22 22 -3 22 -1
22 22 -4z m-106 -9 c0 -5 -5 -10 -11 -10 -5 0 -7 5 -4 10 3 6 8 10 11 10 2 0
4 -4 4 -10z m70 -40 c0 -38 -3 -48 -14 -44 -14 6 -30 -22 -20 -37 3 -5 0 -9
-7 -9 -7 0 -2 -8 9 -19 23 -19 20 -31 -9 -31 -22 0 -49 48 -44 76 2 10 4 23 4
27 1 5 6 5 11 2 6 -3 10 -1 10 4 0 6 -4 11 -10 11 -9 0 6 23 38 56 24 25 32
15 32 -36z m-2436 15 c3 -8 1 -15 -4 -15 -6 0 -10 7 -10 15 0 8 2 15 4 15 2 0
6 -7 10 -15z m2639 -84 c-5 -20 -43 -61 -43 -47 0 9 39 66 45 66 2 0 1 -9 -2
-19z m-2513 -33 c0 -17 -3 -18 -15 -8 -8 7 -15 21 -15 32 0 17 3 18 15 8 8 -7
15 -21 15 -32z m-180 -70 c0 -18 -2 -20 -9 -8 -6 8 -7 18 -5 22 9 14 14 9 14
-14z m2645 12 c-3 -5 -11 -10 -16 -10 -6 0 -7 5 -4 10 3 6 11 10 16 10 6 0 7
-4 4 -10z m-2462 -53 c15 -15 27 -23 27 -17 0 7 6 10 12 8 7 -3 19 1 26 9 19
19 34 6 30 -25 -2 -22 -12 -30 -53 -44 -27 -10 -53 -18 -56 -18 -9 0 -49 99
-49 123 0 17 2 18 18 6 9 -7 29 -26 45 -42z m2247 23 c7 0 11 -2 8 -5 -11 -11
-55 6 -55 21 0 12 3 12 17 -1 9 -8 23 -15 30 -15z m70 -111 c0 -7 -8 -5 -20 6
-11 10 -20 25 -20 33 0 12 5 11 20 -6 11 -12 20 -27 20 -33z m-2490 -19 c0
-13 -27 -13 -53 2 -21 11 -21 11 -2 18 22 8 55 -5 55 -20z m95 20 c3 -5 -1
-10 -9 -10 -9 0 -16 5 -16 10 0 6 4 10 9 10 6 0 13 -4 16 -10z m154 -14 c-32
-16 -80 -26 -73 -15 3 5 14 9 24 9 10 0 22 5 25 10 3 6 16 10 28 10 21 0 21
-1 -4 -14z m2191 -16 c9 -16 8 -20 -5 -20 -8 0 -15 9 -15 20 0 11 2 20 5 20 2
0 9 -9 15 -20z m-2453 -23 c4 -6 -3 -8 -18 -4 -23 6 -23 5 -5 -8 11 -8 23 -15
28 -15 4 0 8 -4 8 -9 0 -10 -14 -9 -42 3 -16 7 -30 40 -21 49 7 7 43 -4 50
-16z m373 3 c0 -5 -9 -10 -20 -10 -11 0 -20 5 -20 10 0 6 9 10 20 10 11 0 20
-4 20 -10z m-65 -31 c0 -9 -11 -14 -33 -14 l-33 -1 23 18 c26 20 43 18 43 -3z
m-190 -17 c-3 -3 -11 0 -18 7 -9 10 -8 11 6 5 10 -3 15 -9 12 -12z m85 -17
c10 -12 10 -15 -1 -15 -26 0 -59 12 -59 21 0 15 47 10 60 -6z m-125 -55 c3 -5
-1 -10 -9 -10 -8 0 -18 5 -21 10 -3 6 1 10 9 10 8 0 18 -4 21 -10z m255 6 c0
-2 -7 -7 -16 -10 -8 -3 -12 -2 -9 4 6 10 25 14 25 6z m0 -76 c0 -5 -5 -10 -11
-10 -5 0 -7 5 -4 10 3 6 8 10 11 10 2 0 4 -4 4 -10z m-30 -35 c7 -8 9 -15 4
-15 -5 0 -2 -5 6 -10 13 -8 12 -10 -2 -10 -10 0 -18 5 -18 10 0 6 -7 10 -15
10 -9 0 -12 -6 -9 -15 5 -11 -1 -15 -20 -15 -33 0 -33 9 2 37 32 27 36 27 52
8z m150 -39 c0 -2 -7 -7 -16 -10 -8 -3 -12 -2 -9 4 6 10 25 14 25 6z m150 -31
c10 -12 9 -15 -5 -15 -9 0 -29 -13 -44 -29 l-27 -28 2 26 c1 14 3 30 3 34 1 7
36 25 52 26 4 1 12 -6 19 -14z m-136 -69 c-9 -15 -19 -25 -21 -22 -3 2 3 16
13 30 9 15 19 25 21 22 3 -2 -3 -16 -13 -30z m266 -1 c0 -8 -7 -15 -15 -15
-16 0 -20 12 -8 23 11 12 23 8 23 -8z m345 -123 c-6 -7 -45 9 -45 18 0 4 11 3
24 -3 14 -7 23 -13 21 -15z m15 -32 c0 -5 -5 -10 -11 -10 -5 0 -7 5 -4 10 3 6
8 10 11 10 2 0 4 -4 4 -10z m0 -30 c0 -5 -4 -10 -10 -10 -5 0 -10 5 -10 10 0
6 5 10 10 10 6 0 10 -4 10 -10z m60 -5 c0 -8 -7 -15 -15 -15 -8 0 -15 5 -15
11 0 5 5 7 10 4 6 -3 10 -1 10 4 0 6 2 11 5 11 3 0 5 -7 5 -15z m360 -25 c0
-5 -2 -10 -4 -10 -3 0 -8 5 -11 10 -3 6 -1 10 4 10 6 0 11 -4 11 -10z m-650
-226 c0 -2 -7 -4 -15 -4 -8 0 -15 4 -15 10 0 5 7 7 15 4 8 -4 15 -8 15 -10z
m1110 6 c0 -5 -4 -9 -9 -7 -5 1 -18 -9 -30 -22 -12 -13 -23 -22 -26 -19 -7 7
41 58 55 58 5 0 10 -4 10 -10z m-1023 -86 c-3 -3 -12 -4 -19 -1 -8 3 -5 6 6 6
11 1 17 -2 13 -5z m68 -54 c3 -5 2 -10 -4 -10 -5 0 -13 5 -16 10 -3 6 -2 10 4
10 5 0 13 -4 16 -10z m-132 -47 c21 -19 43 -31 50 -27 9 5 9 4 0 -6 -10 -11
-16 -11 -30 2 -10 9 -27 18 -38 20 -11 2 -20 10 -20 18 0 8 -6 16 -12 16 -7 1
-21 2 -30 3 -15 1 -15 3 -4 10 19 12 39 4 84 -36z m897 -7 c0 -3 -4 -8 -10
-11 -5 -3 -10 -1 -10 4 0 6 5 11 10 11 6 0 10 -2 10 -4z m-760 -90 c0 -3 -4
-8 -10 -11 -5 -3 -10 -1 -10 4 0 6 5 11 10 11 6 0 10 -2 10 -4z m768 -49 c9 3
13 2 9 -2 -4 -5 -28 -10 -53 -10 -43 -2 -44 -1 -22 11 12 7 17 13 10 14 -7 0
-10 5 -7 11 5 7 14 3 26 -10 12 -13 26 -18 37 -14z m-93 -97 c0 -10 -11 -15
-35 -15 -19 0 -46 -4 -60 -9 -25 -8 -25 -8 -6 11 14 13 31 17 55 15 28 -3 33
-1 21 8 -13 9 -12 11 5 8 11 -2 20 -10 20 -18z m-162 -27 c-7 -2 -19 -2 -25 0
-7 3 -2 5 12 5 14 0 19 -2 13 -5z m-1213 -101 c0 -8 -43 -32 -58 -32 -6 0 49
40 56 40 1 0 2 -4 2 -8z m1130 -6 c0 -2 -7 -7 -16 -10 -8 -3 -12 -2 -9 4 6 10
25 14 25 6z m66 -313 c-10 -10 -46 -11 -46 -1 0 4 12 8 27 8 14 0 23 -3 19 -7z
m78 -18 c-4 -8 -10 -15 -15 -15 -5 0 -9 7 -9 15 0 8 7 15 15 15 9 0 12 -6 9
-15z m-89 -25 c-3 -5 -14 -10 -23 -9 -14 0 -13 2 3 9 27 11 27 11 20 0z m640
-30 c-3 -5 -10 -10 -16 -10 -5 0 -9 5 -9 10 0 6 7 10 16 10 8 0 12 -4 9 -10z
m-1830 -201 c-4 -6 3 -18 15 -26 18 -13 21 -23 18 -59 -2 -24 0 -44 4 -44 11
0 24 -51 31 -122 1 -9 6 -16 11 -15 6 1 10 -8 11 -20 0 -12 3 -25 8 -29 4 -4
7 -20 7 -35 0 -38 10 -60 24 -52 8 5 8 3 0 -8 -15 -20 -24 -59 -13 -59 5 0 8
-3 7 -7 -1 -5 3 -18 10 -31 7 -12 10 -27 7 -32 -3 -6 -2 -10 3 -10 6 0 13 -7
16 -16 3 -8 2 -12 -4 -9 -6 4 -7 -1 -3 -12 11 -28 33 -69 33 -61 0 4 9 0 20
-10 18 -15 19 -18 5 -28 -9 -7 -15 -16 -14 -20 1 -5 -1 -17 -5 -26 -4 -10 -1
-26 8 -40 9 -14 13 -27 10 -31 -3 -3 8 -13 25 -22 18 -9 29 -20 26 -26 -4 -5
-3 -9 2 -8 30 5 44 -3 41 -23 -2 -13 -7 -26 -12 -30 -6 -4 -5 -12 2 -21 12
-14 68 -12 77 3 2 4 -7 5 -22 2 -15 -3 -24 -1 -20 5 3 5 16 9 29 7 13 -1 28
-3 34 -3 6 -1 9 -12 6 -26 -2 -15 0 -25 7 -25 6 0 11 6 11 14 0 7 10 17 23 21
13 4 17 8 10 12 -7 2 -13 9 -13 14 0 6 7 6 19 0 10 -6 21 -7 25 -4 3 3 6 1 6
-6 0 -15 73 25 132 70 20 16 39 29 42 29 3 0 28 -25 57 -55 56 -60 128 -99
247 -135 40 -12 72 -25 72 -30 0 -4 -7 -13 -16 -20 -43 -36 -114 -217 -114
-290 0 -21 -7 -77 -16 -126 -9 -49 -17 -118 -19 -154 -1 -36 -5 -99 -9 -140
-4 -41 -9 -107 -11 -147 -2 -40 -13 -112 -25 -160 -28 -115 -35 -262 -21 -395
9 -78 9 -119 1 -148 -10 -37 -12 -39 -33 -29 -12 7 -53 36 -90 65 -56 44 -72
52 -87 44 -23 -13 -70 -13 -70 -1 0 5 6 12 13 15 6 3 -5 3 -25 0 -32 -5 -38
-3 -38 11 0 10 5 15 13 12 8 -3 20 -1 28 4 9 6 -4 9 -38 9 -36 0 -53 -4 -54
-12 0 -10 -2 -10 -6 0 -2 6 -9 10 -14 6 -5 -3 -9 -1 -9 5 0 5 6 12 13 15 8 3
7 5 -3 4 -22 -3 -60 12 -60 23 0 5 -8 9 -17 10 -13 0 -14 2 -4 6 11 5 11 7 0
14 -11 7 -9 10 9 15 25 7 30 24 7 24 -9 0 -18 12 -21 30 -4 16 -17 36 -30 45
-14 9 -23 19 -20 23 2 4 0 17 -5 29 -7 19 -14 21 -60 18 -47 -2 -50 -1 -29 10
14 7 32 11 42 10 10 -2 16 0 13 6 -4 5 -15 9 -27 9 -14 0 -18 5 -14 16 3 8 2
12 -4 9 -6 -3 -10 1 -10 9 0 9 -4 16 -10 16 -5 0 -10 11 -10 25 0 45 -25 29
-35 -22 -2 -10 -4 -20 -5 -23 -1 -3 -2 -13 -1 -22 1 -10 -3 -18 -9 -18 -6 0
-10 6 -8 13 2 6 -2 12 -7 12 -6 0 -9 -5 -7 -13 3 -10 -1 -11 -17 0 -13 8 -16
15 -9 19 17 11 -1 29 -29 29 -15 0 -24 -3 -20 -6 3 -4 0 -13 -8 -21 -21 -21
-18 -36 5 -30 16 4 20 0 20 -19 0 -13 -4 -24 -10 -24 -5 0 -10 5 -10 10 0 6
-4 10 -8 10 -5 0 -7 -13 -6 -29 2 -24 -2 -29 -21 -27 -13 0 -21 6 -18 14 3 6
-2 12 -11 12 -17 0 -52 17 -73 37 -14 12 -44 76 -49 102 -5 28 -21 33 -74 22
-82 -18 -98 -15 -95 14 2 14 0 23 -5 20 -4 -3 -11 2 -14 11 -4 10 -13 14 -28
10 -13 -3 -17 -3 -10 0 16 8 16 25 -1 18 -8 -3 -20 2 -27 10 -7 9 -17 13 -22
10 -6 -4 -7 0 -1 12 5 11 8 36 6 56 -2 29 1 36 12 31 16 -6 17 -2 19 74 1 29
4 54 7 57 3 3 18 1 35 -3 16 -5 24 -10 17 -10 -7 -1 -10 -8 -7 -16 3 -8 9 -14
12 -13 20 2 25 -3 12 -12 -9 -6 -11 -13 -5 -17 6 -5 10 -14 11 -20 2 -30 5
-34 14 -28 9 5 14 -7 12 -27 -1 -3 5 -9 13 -12 27 -10 38 31 25 94 -7 32 -9
67 -6 78 4 11 2 23 -3 26 -5 4 -6 18 -2 34 4 15 6 32 4 39 -2 7 1 21 7 32 6
12 7 21 1 21 -5 0 -14 19 -19 43 -6 23 -19 66 -30 95 -11 28 -17 52 -14 52 4
0 -4 9 -17 19 -17 13 -22 23 -16 39 3 12 11 22 16 22 5 0 9 8 9 18 0 10 5 23
11 29 6 6 10 30 7 52 -4 44 2 50 22 26 7 -9 20 -13 28 -10 10 3 12 0 8 -10 -4
-12 1 -15 22 -13 24 2 28 6 24 25 -3 15 0 23 9 23 12 0 12 2 1 9 -10 6 -9 10
7 14 12 3 19 1 15 -4 -3 -5 2 -6 10 -3 26 10 28 34 1 34 -13 0 -26 4 -29 9 -3
4 7 6 22 4 l27 -4 -22 19 c-15 13 -20 26 -16 41 4 16 2 20 -9 16 -23 -9 -32
37 -11 53 16 11 16 12 0 12 -22 0 -21 9 4 39 18 22 23 23 41 12 11 -7 17 -8
13 -2 -3 6 -1 11 4 11 6 0 11 -4 11 -10 0 -5 7 -10 15 -10 13 0 12 3 -2 19 -9
11 -22 17 -28 14 -7 -2 -16 0 -20 6 -3 6 1 14 9 17 21 8 20 24 -1 24 -15 0
-16 2 -3 10 22 14 25 13 28 -17 3 -36 22 -55 42 -43 13 8 13 10 -1 10 -27 0
-32 30 -6 40 21 8 19 11 -13 14 -8 0 -14 6 -13 12 1 7 -5 11 -15 10 -9 0 -17
6 -17 14 0 17 36 15 46 -2 4 -5 21 5 40 23 18 18 29 34 24 36 -6 2 -10 42 -9
90 0 49 -3 104 -8 123 -12 48 -17 70 -22 107 -3 17 -7 37 -8 45 -2 8 6 12 22
11 50 -4 90 -15 84 -24 -3 -5 2 -9 10 -9 8 0 20 9 26 19 8 16 6 21 -10 26 -11
3 -19 9 -19 13 4 22 -4 32 -23 32 -21 1 -21 2 -5 11 15 9 15 12 3 25 -8 8 -22
14 -31 14 -12 0 -14 4 -5 19 15 29 13 37 -15 49 -17 8 -25 20 -25 37 0 15 4
24 10 20 6 -3 10 0 10 8 0 7 -11 20 -25 27 -20 11 -25 20 -23 44 2 24 12 35
50 55 25 14 50 29 54 34 11 11 26 8 19 -4z m1739 -73 c43 -35 85 -96 67 -96
-6 0 -11 4 -11 8 0 4 -17 26 -37 49 -32 34 -42 39 -60 32 -13 -5 -23 -5 -23
-1 0 4 -5 0 -10 -8 -8 -13 -11 -13 -22 -1 -7 8 -8 11 -2 8 7 -4 17 -1 23 7 9
11 9 15 -1 20 -7 3 1 3 17 0 23 -4 27 -3 15 5 -8 6 -11 11 -6 11 5 0 27 -15
50 -34z m-3191 -21 c-3 -9 -8 -14 -10 -11 -3 3 -2 9 2 15 9 16 15 13 8 -4z
m3137 -14 c0 -5 -8 -12 -17 -14 -12 -3 -8 -7 15 -12 17 -4 32 -14 32 -21 0 -8
6 -11 15 -8 9 4 15 0 15 -10 0 -9 3 -15 8 -14 4 1 21 -5 37 -12 24 -10 26 -14
12 -17 -13 -4 -16 -10 -11 -26 3 -12 3 -19 -1 -15 -4 4 -17 3 -30 -2 -24 -9
-65 -3 -65 10 0 5 11 7 25 5 17 -1 25 3 25 12 0 9 -6 13 -15 9 -24 -9 -44 4
-40 25 4 21 4 22 -20 13 -9 -4 -21 -18 -26 -31 -11 -30 -31 -20 -23 11 4 16 1
23 -9 23 -11 0 -13 -9 -10 -31 6 -36 3 -32 29 -40 16 -5 23 -2 27 14 7 28 35
16 30 -13 -4 -27 8 -47 33 -51 10 -2 18 -8 17 -14 -1 -5 8 -8 20 -5 19 4 20 3
7 -9 -8 -7 -15 -19 -15 -27 0 -22 -23 -24 -29 -3 -9 28 -44 35 -56 11 -8 -15
-7 -19 5 -19 8 0 15 -5 15 -12 0 -6 3 -9 6 -5 12 12 35 -23 29 -43 -3 -11 -2
-20 3 -20 9 0 35 -50 29 -56 -2 -2 -33 24 -68 59 -35 35 -84 76 -108 91 -42
27 -43 30 -26 42 15 11 20 11 27 1 6 -9 8 -8 8 3 1 11 4 10 15 -4 16 -21 20
-10 6 13 -7 10 -4 19 7 28 10 7 12 12 5 13 -6 0 -15 -4 -18 -10 -8 -13 -72
-43 -84 -38 -6 1 -7 9 -2 16 7 12 24 18 61 22 10 1 11 3 3 7 -18 7 -16 33 2
33 8 0 15 5 15 11 0 5 -6 7 -12 3 -10 -6 -10 -4 0 8 9 11 10 18 2 23 -15 9
-30 -3 -30 -26 0 -18 -2 -19 -15 -5 -20 20 -19 22 15 36 16 7 27 16 24 21 -4
8 20 42 28 39 3 -1 12 1 48 13 24 8 30 8 30 -2z m-585 -21 c-3 -5 -12 -10 -18
-10 -7 0 -6 4 3 10 19 12 23 12 15 0z m-2575 -24 c0 -3 -4 -8 -10 -11 -5 -3
-10 -1 -10 4 0 6 5 11 10 11 6 0 10 -2 10 -4z m2520 -108 c21 -26 90 -70 124
-79 22 -6 48 -20 57 -30 9 -10 21 -19 27 -19 15 0 20 -23 9 -41 -13 -21 -58
-12 -64 12 -3 11 -11 19 -19 19 -15 0 -244 220 -244 235 0 7 89 -71 110 -97z
m-1373 16 c-9 -9 -28 6 -21 18 4 6 10 6 17 -1 6 -6 8 -13 4 -17z m1860 -6 c-3
-8 -6 -5 -6 6 -1 11 2 17 5 13 3 -3 4 -12 1 -19z m-442 -16 c-3 -3 -11 0 -18
7 -9 10 -8 11 6 5 10 -3 15 -9 12 -12z m415 -13 c0 -18 -18 -9 -23 12 -4 16
-3 18 9 8 8 -6 14 -15 14 -20z m-1810 17 c0 -9 -40 -13 -46 -5 -3 5 6 9 20 9
14 0 26 -2 26 -4z m2030 -18 c0 -4 -4 -8 -9 -8 -6 0 -12 4 -15 8 -3 5 1 9 9 9
8 0 15 -4 15 -9z m63 -3 c1 -5 -6 -11 -15 -13 -11 -2 -18 3 -18 13 0 17 30 18
33 0z m-656 -1 c-3 -3 -12 -4 -19 -1 -8 3 -5 6 6 6 11 1 17 -2 13 -5z m-1557
-29 c0 -8 -4 -15 -10 -15 -5 0 -10 7 -10 15 0 8 5 15 10 15 6 0 10 -7 10 -15z
m1639 -1 c13 -12 -8 -10 -29 2 l-25 15 25 -7 c14 -3 27 -8 29 -10z m-80 -105
c33 -20 67 -49 58 -49 -3 0 -18 7 -33 15 -16 8 -36 15 -44 15 -17 0 -40 19
-40 32 0 14 24 9 59 -13z m-1534 -129 c3 -5 -1 -10 -10 -10 -9 0 -13 5 -10 10
3 6 8 10 10 10 2 0 7 -4 10 -10z m1746 -33 c-9 -9 -10 -5 -7 13 6 36 8 37 13
16 3 -10 0 -23 -6 -29z m-44 11 c2 -18 0 -20 -7 -8 -12 18 -13 30 -2 30 4 0 9
-10 9 -22z m120 -24 c2 -13 1 -15 -4 -4 -3 8 -11 19 -17 23 -7 6 -6 7 4 4 8
-2 16 -12 17 -23z m-147 -4 c0 -5 -5 -10 -11 -10 -5 0 -7 5 -4 10 3 6 8 10 11
10 2 0 4 -4 4 -10z m63 -19 c3 -14 1 -18 -9 -14 -15 6 -18 16 -7 26 9 10 10 9
16 -12z m397 -11 c0 -11 -2 -20 -4 -20 -2 0 -6 9 -9 20 -3 11 -1 20 4 20 5 0
9 -9 9 -20z m-442 -26 c-4 -3 -12 5 -18 18 -12 22 -12 22 6 6 10 -10 15 -20
12 -24z m206 21 c-10 -7 -22 -11 -27 -8 -12 7 0 19 23 20 21 2 21 1 4 -12z
m-114 1 c0 -3 -4 -8 -10 -11 -5 -3 -10 -1 -10 4 0 6 5 11 10 11 6 0 10 -2 10
-4z m-1770 -21 c0 -8 -4 -15 -10 -15 -5 0 -7 7 -4 15 4 8 8 15 10 15 2 0 4 -7
4 -15z m1690 -25 c0 -5 -5 -10 -11 -10 -5 0 -7 5 -4 10 3 6 8 10 11 10 2 0 4
-4 4 -10z m-1657 -74 c8 -21 -3 -54 -20 -60 -11 -5 -14 -1 -10 13 2 10 1 25
-4 32 -5 8 -3 17 4 21 17 11 24 10 30 -6z m711 -17 c-2 -5 -11 -6 -19 -3 -9 4
-16 -3 -20 -18 -4 -14 -13 -25 -21 -25 -12 0 -11 3 2 18 9 10 14 22 11 27 -3
4 7 8 23 8 16 0 27 -3 24 -7z m-776 -11 c5 -7 12 -22 14 -33 2 -11 12 -21 23
-23 32 -5 65 -24 65 -38 0 -16 -47 -8 -67 11 -18 19 -29 20 -14 2 13 -16 5
-28 -15 -20 -8 3 -14 -1 -14 -11 0 -9 -6 -16 -14 -16 -8 0 -24 -16 -35 -36
-12 -20 -25 -33 -29 -29 -4 4 -1 10 6 12 6 3 12 10 12 16 0 5 -3 7 -7 4 -3 -4
-17 0 -29 8 -13 8 -25 11 -29 6 -3 -5 0 -13 7 -17 7 -5 4 -10 -12 -16 -17 -6
-26 -4 -36 9 -19 25 -17 32 11 45 13 6 22 15 19 19 -3 5 0 9 7 9 7 0 9 3 6 7
-4 3 -2 12 4 19 6 8 9 20 6 29 -8 18 5 26 23 15 11 -7 11 -11 1 -24 -8 -9 -9
-16 -3 -16 6 0 12 5 14 11 3 9 22 16 52 18 4 1 5 12 2 26 -7 27 13 35 32 13z
m-218 -48 c14 -13 14 -16 0 -21 -18 -8 -40 8 -40 27 0 17 18 14 40 -6z m374
-8 c2 -4 -5 -9 -17 -9 -17 -2 -19 0 -7 7 18 12 18 12 24 2z m-359 -32 c3 -5
-3 -10 -15 -10 -12 0 -18 5 -15 10 3 6 10 10 15 10 5 0 12 -4 15 -10z m330
-82 c0 -20 -3 -34 -7 -31 -5 2 -8 12 -8 21 0 12 -3 13 -12 4 -7 -7 -17 -12
-22 -12 -6 0 -5 4 3 9 13 8 13 12 0 27 -9 11 -9 15 -1 10 7 -4 12 -2 12 4 0 6
8 10 17 8 13 -2 18 -13 18 -40z m-818 -20 c-3 -8 -6 -5 -6 6 -1 11 2 17 5 13
3 -3 4 -12 1 -19z m573 -34 c0 -8 -5 -12 -10 -9 -6 4 -8 11 -5 16 9 14 15 11
15 -7z m210 -19 c0 -8 -4 -15 -10 -15 -5 0 -7 7 -4 15 4 8 8 15 10 15 2 0 4
-7 4 -15z m-710 -72 c0 -13 -4 -12 -19 5 -10 12 -23 22 -30 22 -6 0 -11 11
-11 25 l0 26 30 -31 c17 -17 30 -38 30 -47z m602 15 c6 -13 13 -31 15 -41 6
-33 33 -77 48 -77 14 0 14 -3 1 -22 -15 -23 -66 -186 -70 -223 -2 -11 -10 -21
-18 -23 -14 -3 -26 -29 -29 -59 0 -5 -6 -14 -12 -22 -7 -8 -7 -12 -2 -9 6 4
11 -9 11 -33 1 -32 -2 -39 -17 -39 -21 0 -25 -15 -8 -26 8 -4 3 -12 -14 -20
-17 -9 -24 -20 -21 -32 3 -10 -6 -30 -21 -47 l-27 -30 5 130 c3 72 2 139 -3
150 -8 20 -9 19 -9 -1 -1 -23 -24 -48 -34 -37 -4 3 -7 19 -7 35 0 21 5 28 20
28 13 0 20 7 20 20 0 11 -6 19 -12 18 -19 -4 -22 56 -4 72 10 8 16 29 16 57
l0 45 26 -16 c26 -18 59 -18 60 -1 0 6 3 24 7 41 5 17 3 43 -2 57 -7 17 -7 27
-1 27 5 0 8 6 6 13 -1 6 -1 9 1 5 7 -13 33 -9 49 7 9 8 11 15 5 15 -6 0 -11 5
-11 11 0 5 4 7 10 4 7 -4 7 3 0 19 -12 33 4 35 22 4z m2138 -28 c0 -5 -5 -10
-11 -10 -5 0 -7 5 -4 10 3 6 8 10 11 10 2 0 4 -4 4 -10z m-2030 -10 c0 -5 -4
-10 -10 -10 -5 0 -10 5 -10 10 0 6 5 10 10 10 6 0 10 -4 10 -10z m2030 -41 c0
-11 -4 -17 -10 -14 -5 3 -10 13 -10 21 0 8 5 14 10 14 6 0 10 -9 10 -21z
m-2023 4 c-4 -3 1 -12 11 -19 20 -15 12 -27 -12 -18 -9 3 -13 11 -9 17 4 7 -1
8 -13 4 -18 -7 -18 -7 0 8 20 15 35 21 23 8z m80 -45 c-3 -8 -6 -5 -6 6 -1 11
2 17 5 13 3 -3 4 -12 1 -19z m-439 -80 c14 -17 13 -18 -11 -18 -14 0 -29 -4
-32 -10 -9 -15 -25 -12 -25 5 0 8 5 15 11 15 6 0 9 7 5 15 -3 8 2 19 12 24 12
7 18 6 21 -2 2 -7 10 -20 19 -29z m2402 -3 c0 -12 -19 -12 -23 0 -4 9 -1 12 9
8 7 -3 14 -7 14 -8z m-2546 -45 c-9 -16 -20 -30 -25 -30 -6 0 -7 -4 -4 -10 3
-5 2 -10 -4 -10 -5 0 -12 -14 -16 -31 -4 -17 -13 -33 -21 -36 -8 -3 -14 -11
-14 -19 0 -8 -10 -14 -24 -14 -23 0 -30 19 -14 36 4 3 4 12 1 20 -3 8 -1 14 5
14 5 0 19 16 31 36 12 19 24 33 29 30 12 -7 45 22 37 33 -3 7 2 11 14 11 18 0
19 -2 5 -30z m2543 0 c1 -11 -2 -20 -5 -20 -4 0 -8 9 -9 20 -1 11 2 20 5 20 4
0 8 -9 9 -20z m-2417 -11 c0 -5 -4 -9 -10 -9 -5 0 -10 7 -10 16 0 8 5 12 10 9
6 -3 10 -10 10 -16z m2430 -84 c0 -8 -4 -15 -9 -15 -5 0 -11 7 -15 15 -3 9 0
15 9 15 8 0 15 -7 15 -15z m10 -49 c0 -3 -4 -8 -10 -11 -5 -3 -10 -1 -10 4 0
6 5 11 10 11 6 0 10 -2 10 -4z m-3849 -109 c-10 -9 -11 -8 -5 6 3 10 9 15 12
12 3 -3 0 -11 -7 -18z m1745 -7 c12 0 14 -8 10 -35 -4 -23 -1 -44 9 -58 16
-26 10 -63 -12 -72 -13 -4 -14 -3 -4 9 8 10 9 16 1 21 -5 3 -10 16 -10 29 0
13 -8 30 -18 39 -24 22 -29 82 -6 73 8 -3 22 -6 30 -6z m-54 -50 c4 0 8 -7 8
-15 0 -26 -18 -16 -29 16 -14 40 -13 51 1 22 6 -13 15 -23 20 -23z m18 -60 c0
-5 -7 -7 -15 -4 -8 4 -15 8 -15 10 0 2 7 4 15 4 8 0 15 -4 15 -10z m-1723 -72
c-3 -8 -6 -5 -6 6 -1 11 2 17 5 13 3 -3 4 -12 1 -19z m1 -66 c2 -7 -2 -10 -12
-6 -9 3 -16 11 -16 16 0 13 23 5 28 -10z m-6 -66 c-6 -48 -12 -46 -12 5 0 22
4 38 8 35 4 -3 6 -21 4 -40z m4045 -22 c-3 -3 -12 -4 -19 -1 -8 3 -5 6 6 6 11
1 17 -2 13 -5z m-4060 -66 c-3 -7 -5 -2 -5 12 0 14 2 19 5 13 2 -7 2 -19 0
-25z m3947 -3 c3 -8 15 -15 26 -15 11 0 20 -5 20 -11 0 -6 -6 -9 -14 -6 -8 3
-20 -1 -26 -9 -21 -24 -37 -16 -38 21 -1 36 20 50 32 20z m-3958 -107 c-3 -40
-6 -81 -6 -90 0 -10 -4 -18 -10 -18 -10 0 -9 16 6 128 10 77 17 63 10 -20z
m2319 -88 c-4 -7 -22 -7 -45 0 -3 1 4 5 15 9 22 9 38 4 30 -9z m-2330 -57 c-4
-10 -9 -42 -12 -72 -2 -30 -8 -61 -14 -70 -8 -12 -9 -7 -5 18 3 18 6 58 6 87
0 43 3 54 16 54 11 0 14 -5 9 -17z m4188 -65 c25 -53 30 -85 15 -94 -7 -4 -10
-4 -6 1 4 4 1 13 -8 19 -16 12 -45 87 -37 98 9 16 21 7 36 -24z m-433 -13 c0
-15 -21 -12 -30 5 -11 20 -10 21 9 10 12 -6 21 -13 21 -15z m192 0 c3 -14 1
-28 -3 -31 -5 -3 -9 1 -9 8 0 10 -11 13 -37 11 -40 -3 -36 1 10 11 15 4 25 11
22 16 -3 6 -2 10 3 10 5 0 12 -11 14 -25z m-188 -57 c8 -32 7 -38 -4 -38 -5 0
-10 7 -10 15 0 8 -4 15 -10 15 -5 0 -10 7 -10 15 0 24 27 18 34 -7z m130 9
c-15 -9 -20 -19 -17 -39 2 -17 -1 -28 -8 -28 -6 0 -9 7 -6 14 4 9 -2 17 -14
21 -22 7 -16 23 15 35 33 14 55 11 30 -3z m-1504 -18 c0 -5 -10 -7 -22 -5 -13
3 -25 5 -28 5 -3 1 1 5 9 10 16 10 41 4 41 -10z m1 -33 c-10 -11 -8 -17 6 -25
14 -8 15 -10 3 -11 -16 0 -40 18 -40 31 0 4 8 10 18 12 9 3 19 5 21 6 2 0 -2
-5 -8 -13z m-2409 -48 c-2 -10 -8 -18 -13 -18 -11 0 -12 54 -2 64 10 10 21
-24 15 -46z m4261 28 c5 -12 -2 -14 -31 -7 -2 1 0 6 3 11 9 14 22 12 28 -4z
m-33 -23 c0 -5 -7 -16 -14 -26 -11 -15 -15 -15 -25 -3 -10 11 -8 17 6 25 22
12 33 14 33 4z m-4244 -90 c-4 -32 -9 -67 -11 -78 -2 -11 -4 -41 -4 -67 -1
-28 -6 -48 -12 -48 -11 0 -6 112 7 165 3 11 7 34 9 50 5 37 4 35 11 35 4 0 4
-26 0 -57z m221 -13 c19 -42 23 -60 13 -60 -6 0 -10 -9 -10 -19 0 -24 -39 -39
-51 -20 -11 18 -11 29 1 29 5 0 7 27 3 68 -5 66 -5 67 13 47 11 -11 24 -31 31
-45z m3781 11 c-1 -16 -6 -27 -10 -25 -12 7 -10 54 2 54 6 0 9 -13 8 -29z
m177 -25 c7 -7 14 -21 17 -31 2 -11 14 -25 28 -32 14 -7 19 -13 13 -13 -7 0
-13 -6 -13 -13 0 -7 -13 -14 -28 -15 -25 -2 -31 4 -55 53 -15 31 -27 60 -27
66 0 14 47 3 65 -15z m-348 -58 c-3 -8 -6 -5 -6 6 -1 11 2 17 5 13 3 -3 4 -12
1 -19z m180 16 c-3 -3 -12 -4 -19 -1 -8 3 -5 6 6 6 11 1 17 -2 13 -5z m227
-119 c-4 -8 -10 -12 -15 -9 -14 8 -10 24 6 24 9 0 12 -6 9 -15z m-3978 -61 c2
-21 7 -40 13 -42 6 -2 11 -16 11 -30 1 -15 7 -54 15 -87 18 -76 19 -108 3
-100 -7 4 -6 1 3 -7 20 -16 83 -251 66 -245 -7 2 -13 9 -13 15 -1 7 -2 19 -3
27 0 8 -7 15 -14 15 -9 0 -13 14 -12 46 0 31 -4 48 -15 54 -10 6 -11 10 -3 10
15 0 13 21 -2 32 -5 4 -20 8 -32 8 -15 0 -28 11 -39 31 -8 17 -12 29 -7 26 5
-3 9 14 9 39 0 24 -4 44 -8 44 -4 0 -13 18 -19 40 -9 30 -9 46 -1 65 7 15 8
27 2 30 -10 6 -8 20 5 62 11 35 39 13 41 -33z m-305 -40 c-6 -28 -9 -32 -10
-14 -1 30 11 79 16 64 2 -6 -1 -28 -6 -50z m4079 1 c0 -3 -9 -1 -20 5 -11 6
-18 15 -15 21 6 9 35 -12 35 -26z m160 -39 c0 -2 -7 -6 -15 -10 -8 -3 -15 -1
-15 4 0 6 7 10 15 10 8 0 15 -2 15 -4z m-340 -121 c0 -8 -4 -15 -10 -15 -5 0
-7 7 -4 15 4 8 8 15 10 15 2 0 4 -7 4 -15z m-3925 -135 c3 -5 1 -10 -4 -10 -6
0 -11 5 -11 10 0 6 2 10 4 10 3 0 8 -4 11 -10z m5 -28 c0 -4 -4 -12 -9 -17 -5
-6 -12 -26 -15 -46 -3 -19 -10 -46 -16 -60 -9 -22 -10 -21 -6 11 13 99 18 120
32 120 8 0 14 -4 14 -8z m3920 -42 c0 -5 -4 -10 -10 -10 -5 0 -10 5 -10 10 0
6 5 10 10 10 6 0 10 -4 10 -10z m20 -216 c0 -8 -5 -12 -10 -9 -6 4 -8 11 -5
16 9 14 15 11 15 -7z m-2206 -149 c-9 -14 -20 -25 -24 -25 -4 0 -5 -11 -2 -25
3 -19 8 -23 17 -15 10 8 14 4 19 -16 4 -14 6 -28 4 -29 -9 -8 -82 12 -86 24
-3 10 1 12 17 8 19 -4 21 -2 18 21 -3 19 4 36 22 55 32 34 36 34 15 2z m2003
-57 c-3 -7 -5 -2 -5 12 0 14 2 19 5 13 2 -7 2 -19 0 -25z m353 -37 c0 -4 -6
-13 -12 -19 -10 -10 -10 -15 2 -22 13 -9 13 -10 0 -11 -9 0 -7 -4 8 -11 12 -6
22 -15 22 -20 0 -12 -13 -10 -38 8 -13 9 -29 14 -36 11 -8 -3 -12 3 -11 16 1
12 -4 29 -12 38 -12 15 -11 16 12 12 14 -3 25 -1 25 5 0 6 9 8 20 5 11 -3 20
-8 20 -12z m-159 -24 c-6 -8 -7 -17 -3 -21 4 -4 1 -6 -7 -4 -7 2 -16 -3 -18
-9 -3 -7 2 -13 11 -13 9 0 16 -5 16 -11 0 -5 4 -8 9 -4 5 3 12 1 16 -5 3 -5
-6 -15 -20 -20 -14 -5 -24 -14 -21 -19 3 -5 -1 -11 -9 -15 -9 -3 -29 9 -50 31
-19 20 -35 30 -35 23 0 -15 -29 -39 -47 -40 -7 0 -13 5 -13 10 0 6 9 10 19 10
14 0 19 6 16 20 -4 20 2 23 65 35 19 4 43 16 53 26 20 22 35 26 18 6z m67 -15
c6 -18 -15 -14 -22 4 -4 10 -1 14 6 12 6 -2 14 -10 16 -16z m127 8 c3 -5 -1
-10 -9 -10 -9 0 -16 5 -16 10 0 6 4 10 9 10 6 0 13 -4 16 -10z m-2392 -20 c4
-16 0 -20 -16 -19 -12 0 -16 3 -9 6 6 2 12 11 12 19 0 20 7 17 13 -6z m-43 0
c0 -5 -4 -10 -10 -10 -5 0 -10 5 -10 10 0 6 5 10 10 10 6 0 10 -4 10 -10z
m2320 -14 c0 -3 -4 -8 -10 -11 -5 -3 -10 -1 -10 4 0 6 5 11 10 11 6 0 10 -2
10 -4z m-50 -65 c0 -18 -18 -21 -30 -6 -10 13 -9 15 9 15 11 0 21 -4 21 -9z
m-2435 -56 c-3 -25 -1 -34 7 -29 7 5 8 2 3 -6 -6 -10 -11 -10 -20 3 -7 9 -15
14 -18 10 -4 -3 -7 -1 -7 5 0 7 8 12 18 13 14 0 14 2 -3 9 -17 7 -17 9 -2 9 9
1 17 6 17 11 0 6 2 10 5 10 3 0 3 -16 0 -35z m172 19 c-3 -3 -12 -4 -19 -1 -8
3 -5 6 6 6 11 1 17 -2 13 -5z m695 -38 c3 2 5 -3 5 -11 0 -8 -4 -15 -9 -15
-15 0 -48 40 -48 58 1 14 5 12 24 -10 13 -15 26 -25 28 -22z m-7 34 c3 -5 1
-10 -4 -10 -6 0 -11 5 -11 10 0 6 2 10 4 10 3 0 8 -4 11 -10z m1485 -10 c0 -5
-7 -7 -15 -4 -8 4 -15 8 -15 10 0 2 7 4 15 4 8 0 15 -4 15 -10z m-2131 -26
c26 -13 32 -21 27 -38 -3 -11 -6 -30 -6 -40 0 -11 -3 -17 -6 -14 -3 3 -15 -4
-27 -16 -20 -19 -20 -23 -7 -37 8 -8 21 -14 28 -11 6 2 12 0 12 -6 0 -6 -6
-13 -12 -15 -10 -4 -10 -8 1 -15 11 -8 11 -11 0 -18 -20 -12 -39 -14 -39 -3 0
4 -7 6 -15 3 -12 -5 -15 3 -17 37 -1 24 -2 53 -3 64 -1 11 3 26 8 32 6 8 5 24
-2 44 -14 40 -14 40 6 32 11 -4 14 -3 9 5 -10 16 5 15 43 -4z m-216 -66 c6
-21 -3 -23 -22 -5 -8 6 -11 7 -8 2 3 -6 1 -17 -4 -25 -7 -11 -9 -7 -7 15 2 35
33 44 41 13z m2184 -50 c-3 -8 -6 -5 -6 6 -1 11 2 17 5 13 3 -3 4 -12 1 -19z
m-2227 -20 c0 -10 2 -10 9 0 7 11 9 11 14 -2 4 -9 18 -16 32 -16 14 0 25 -5
25 -11 0 -5 -6 -7 -12 -4 -7 4 -5 0 5 -8 9 -8 17 -23 17 -34 0 -10 6 -25 13
-32 22 -23 -28 -3 -88 36 -53 35 -70 65 -42 76 21 9 27 8 27 -5z m70 4 c0 -4
-9 -8 -19 -8 -11 0 -17 4 -15 8 3 4 12 8 20 8 8 0 14 -4 14 -8z m2410 -142 c0
-5 -5 -10 -11 -10 -5 0 -7 5 -4 10 3 6 8 10 11 10 2 0 4 -4 4 -10z"/>
<path d="M4980 8161 c-6 -11 -6 -22 -1 -25 5 -3 11 5 13 19 6 30 2 32 -12 6z"/>
<path d="M4997 7343 c-13 -12 -7 -23 13 -23 13 0 18 5 14 15 -7 16 -17 19 -27
8z"/>
<path d="M5220 7270 c0 -5 5 -10 10 -10 6 0 10 5 10 10 0 6 -4 10 -10 10 -5 0
-10 -4 -10 -10z"/>
<path d="M6761 7066 c-16 -19 -11 -29 8 -17 7 5 12 14 9 21 -3 9 -8 7 -17 -4z"/>
<path d="M4050 4044 c0 -8 5 -12 10 -9 6 4 8 11 5 16 -9 14 -15 11 -15 -7z"/>
<path d="M3895 3198 c2 -10 6 -22 9 -27 4 -5 1 -11 -5 -13 -6 -2 -8 -14 -3
-31 9 -37 22 -22 24 28 3 57 2 62 -14 62 -8 0 -13 -8 -11 -19z"/>
<path d="M3930 3124 c0 -8 5 -12 10 -9 6 3 10 10 10 16 0 5 -4 9 -10 9 -5 0
-10 -7 -10 -16z"/>
<path d="M3825 2130 c-3 -5 -2 -10 4 -10 5 0 13 5 16 10 3 6 2 10 -4 10 -5 0
-13 -4 -16 -10z"/>
<path d="M4233 2122 c-2 -19 32 -28 42 -11 4 5 -1 9 -10 9 -9 0 -13 5 -10 10
3 6 0 10 -7 10 -8 0 -14 -8 -15 -18z"/>
<path d="M4123 2105 c-7 -20 0 -27 21 -19 9 3 16 14 15 23 0 10 -2 11 -6 4 -2
-7 -9 -13 -14 -13 -6 0 -7 5 -4 10 3 6 4 10 0 10 -3 0 -8 -7 -12 -15z"/>
<path d="M4165 2098 c-6 -12 -21 -25 -35 -28 -22 -5 -23 -7 -6 -13 12 -5 25
-2 36 8 9 8 24 15 33 15 10 0 17 8 17 20 0 27 -33 26 -45 -2z"/>
<path d="M4268 2083 c-10 -2 -18 -9 -18 -14 0 -6 8 -5 20 1 11 6 20 13 20 15
0 3 -1 4 -2 4 -2 -1 -11 -3 -20 -6z"/>
<path d="M5740 4020 c-9 -6 -10 -10 -3 -10 6 0 15 5 18 10 8 12 4 12 -15 0z"/>
<path d="M5711 3863 c-1 -26 14 -31 23 -7 3 8 2 13 -3 9 -5 -3 -12 1 -14 7 -3
7 -6 3 -6 -9z"/>
<path d="M5680 450 c-13 -8 -12 -10 3 -10 9 0 17 5 17 10 0 12 -1 12 -20 0z"/>
<path d="M3520 131 c0 -10 30 -24 37 -17 3 2 -5 9 -16 16 -12 6 -21 7 -21 1z"/>
<path d="M5535 8680 c-3 -5 1 -10 9 -10 9 0 16 5 16 10 0 6 -4 10 -9 10 -6 0
-13 -4 -16 -10z"/>
<path d="M5598 8683 c7 -3 16 -2 19 1 4 3 -2 6 -13 5 -11 0 -14 -3 -6 -6z"/>
<path d="M6350 8561 c0 -6 4 -13 10 -16 6 -3 7 1 4 9 -7 18 -14 21 -14 7z"/>
<path d="M6360 8495 c0 -2 10 -10 23 -16 20 -11 21 -11 8 4 -13 16 -31 23 -31
12z"/>
<path d="M6417 8479 c4 -13 8 -18 11 -10 2 7 -1 18 -6 23 -8 8 -9 4 -5 -13z"/>
<path d="M6279 8452 c6 -11 20 -22 31 -25 20 -5 20 -4 7 16 -8 12 -22 24 -32
25 -14 3 -15 0 -6 -16z"/>
<path d="M6400 8456 c0 -2 8 -10 18 -17 15 -13 16 -12 3 4 -13 16 -21 21 -21
13z"/>
<path d="M6260 8435 c7 -9 15 -13 17 -11 7 7 -7 26 -19 26 -6 0 -6 -6 2 -15z"/>
<path d="M4225 8331 c-17 -4 -29 -13 -27 -20 2 -9 -3 -11 -13 -7 -22 8 -35 -1
-28 -20 3 -9 10 -11 17 -6 6 5 28 10 49 10 39 1 77 17 77 32 0 4 -13 2 -30 -6
-21 -11 -34 -12 -47 -5 -16 9 -15 10 7 11 14 0 32 5 40 10 13 9 13 10 0 9 -8
-1 -28 -4 -45 -8z"/>
<path d="M4062 8255 c-18 -8 -31 -19 -27 -25 3 -5 0 -8 -7 -5 -14 6 -68 -39
-68 -56 0 -11 35 5 45 21 3 5 22 17 41 26 19 9 39 25 45 35 5 11 8 19 7 19 -2
-1 -18 -7 -36 -15z"/>
<path d="M4110 8250 c0 -13 20 -13 40 0 12 8 9 10 -12 10 -16 0 -28 -4 -28
-10z"/>
<path d="M6651 7474 c0 -11 3 -14 6 -6 3 7 2 16 -1 19 -3 4 -6 -2 -5 -13z"/>
<path d="M3546 7354 c-4 -14 -5 -28 -3 -31 3 -2 8 8 11 23 4 14 5 28 3 31 -3
2 -8 -8 -11 -23z"/>
<path d="M3411 7284 c0 -11 3 -14 6 -6 3 7 2 16 -1 19 -3 4 -6 -2 -5 -13z"/>
<path d="M3400 7250 c0 -5 7 -10 16 -10 8 0 12 5 9 10 -3 6 -10 10 -16 10 -5
0 -9 -4 -9 -10z"/>
<path d="M6738 7178 c-10 -10 -14 -18 -9 -18 10 0 36 29 30 34 -2 1 -12 -6
-21 -16z"/>
<path d="M4989 6363 c-24 -13 -45 -26 -47 -28 -2 -2 13 -21 32 -43 32 -35 35
-43 26 -67 -5 -14 -10 -28 -10 -31 0 -2 29 -2 65 2 45 5 69 3 79 -5 8 -7 20
-10 25 -7 5 4 12 2 16 -4 16 -25 85 11 85 44 0 9 7 16 16 16 11 0 14 6 9 20
-5 14 -2 20 10 20 9 0 13 -4 10 -10 -3 -6 1 -7 9 -4 9 3 13 10 10 15 -3 5 -1
16 4 25 8 14 10 14 21 0 28 -33 80 -5 77 42 -3 53 -75 57 -140 7 -51 -39 -113
-48 -136 -19 -13 15 -69 42 -101 49 -9 2 -36 -8 -60 -22z m36 -133 c3 -5 1
-10 -4 -10 -6 0 -11 5 -11 10 0 6 2 10 4 10 3 0 8 -4 11 -10z"/>
<path d="M5318 6233 c7 -3 16 -2 19 1 4 3 -2 6 -13 5 -11 0 -14 -3 -6 -6z"/>
<path d="M4470 5979 c0 -5 5 -7 10 -4 6 3 10 8 10 11 0 2 -4 4 -10 4 -5 0 -10
-5 -10 -11z"/>
<path d="M5217 5943 c-14 -13 -6 -19 21 -17 45 2 48 4 32 14 -17 11 -44 13
-53 3z"/>
<path d="M4500 5925 c-11 -13 -10 -14 4 -9 9 3 16 10 16 15 0 13 -6 11 -20 -6z"/>
<path d="M4654 5916 c-6 -17 2 -36 17 -36 12 0 12 37 -1 45 -6 3 -13 -1 -16
-9z"/>
<path d="M4863 5782 c-7 -4 -9 -13 -4 -21 6 -9 10 -7 14 8 3 12 4 21 4 21 -1
0 -7 -4 -14 -8z"/>
<path d="M4566 5374 c-4 -10 -1 -14 6 -12 15 5 23 28 10 28 -5 0 -13 -7 -16
-16z"/>
<path d="M5577 5115 c-4 -8 -2 -17 3 -20 6 -4 10 1 10 9 0 9 5 16 11 16 6 0 8
-7 5 -16 -3 -8 -2 -12 4 -9 6 3 10 13 10 21 0 18 -36 18 -43 -1z"/>
<path d="M6287 4985 c3 -8 8 -15 12 -15 7 0 49 -42 95 -94 l25 -28 13 27 c8
17 8 29 2 33 -6 4 -26 18 -45 32 -19 14 -51 33 -71 43 -31 13 -36 14 -31 2z"/>
<path d="M5715 4880 c-3 -6 1 -7 9 -4 18 7 21 14 7 14 -6 0 -13 -4 -16 -10z"/>
<path d="M5588 4853 c7 -3 16 -2 19 1 4 3 -2 6 -13 5 -11 0 -14 -3 -6 -6z"/>
<path d="M6379 4777 c5 -5 49 -11 98 -14 79 -5 96 -10 161 -45 116 -64 208
-89 353 -98 104 -6 135 -11 183 -33 31 -14 94 -36 139 -48 45 -12 126 -42 180
-65 53 -24 100 -44 103 -44 6 0 258 -134 310 -165 28 -17 29 -17 8 1 -27 25
-235 138 -354 192 -110 50 -186 79 -250 93 -25 5 -85 26 -134 46 -80 31 -100
35 -180 35 -110 0 -260 41 -348 94 -57 35 -113 49 -221 57 -36 2 -54 0 -48 -6z"/>
<path d="M5706 4757 c3 -8 -6 -18 -21 -25 -25 -12 -26 -32 -2 -32 9 0 8 3 -1
8 -9 6 -6 12 13 20 26 12 32 26 15 37 -5 3 -7 0 -4 -8z"/>
<path d="M5665 4750 c-3 -5 -1 -10 4 -10 6 0 11 5 11 10 0 6 -2 10 -4 10 -3 0
-8 -4 -11 -10z"/>
<path d="M5951 4634 c0 -11 3 -14 6 -6 3 7 2 16 -1 19 -3 4 -6 -2 -5 -13z"/>
<path d="M6446 4585 c8 -37 14 -45 14 -19 0 10 -5 26 -10 34 -8 11 -9 7 -4
-15z"/>
<path d="M3218 4423 c7 -3 16 -2 19 1 4 3 -2 6 -13 5 -11 0 -14 -3 -6 -6z"/>
<path d="M5800 4410 c0 -5 5 -10 10 -10 6 0 10 5 10 10 0 6 -4 10 -10 10 -5 0
-10 -4 -10 -10z"/>
<path d="M5776 4353 c-6 -14 -5 -15 5 -6 7 7 10 15 7 18 -3 3 -9 -2 -12 -12z"/>
<path d="M7862 4012 c-6 -4 -22 -33 -36 -64 -14 -31 -29 -58 -35 -59 -11 -4
-19 -57 -20 -132 -1 -37 -5 -49 -20 -55 -44 -16 -93 -102 -137 -240 -24 -74
-42 -137 -39 -140 2 -3 -1 -14 -7 -26 -7 -11 -13 -24 -14 -28 -1 -5 -3 -11 -4
-15 -1 -5 -2 -12 -1 -16 1 -4 -5 -18 -14 -30 -8 -12 -15 -36 -15 -53 0 -43 -9
-64 -27 -64 -8 0 -12 -3 -9 -8 2 -4 -2 -16 -10 -27 -8 -10 -14 -15 -15 -9 0 5
-8 -11 -18 -36 -19 -45 -18 -75 2 -63 6 3 7 1 3 -6 -4 -6 -12 -9 -17 -6 -5 4
-9 -6 -9 -20 0 -17 4 -24 11 -19 8 4 9 -1 4 -16 -5 -14 -3 -20 3 -16 6 3 9 -1
7 -11 -2 -10 -4 -20 -4 -23 -1 -3 -6 2 -11 10 -8 12 -10 11 -10 -7 0 -12 4
-24 10 -28 6 -4 6 -15 0 -30 -6 -16 -6 -25 0 -25 13 0 13 -47 -1 -55 -6 -4 -8
-13 -5 -21 3 -7 -3 -18 -12 -23 -10 -6 -12 -11 -4 -11 20 0 13 -19 -8 -19 -11
-1 -29 -1 -40 -2 -21 0 -28 -29 -7 -30 6 0 2 -4 -9 -9 -23 -9 -31 -60 -10 -60
6 0 3 -7 -7 -14 -10 -8 -14 -16 -9 -17 6 -2 4 -10 -4 -17 -8 -7 -14 -8 -14 -2
0 5 -8 2 -18 -7 -13 -12 -16 -22 -9 -30 6 -9 6 -13 -2 -13 -7 0 -11 -8 -10
-17 4 -34 -20 -84 -47 -98 -10 -6 -34 -20 -52 -32 l-33 -20 115 -13 c64 -7
116 -16 116 -19 0 -3 -4 -11 -8 -16 -9 -12 -75 -17 -67 -5 3 5 1 11 -4 14 -5
4 -12 -4 -14 -16 -4 -23 -4 -23 -6 -1 -1 28 -27 33 -71 14 -37 -17 -67 -41
-53 -42 4 0 -3 -5 -17 -11 -14 -6 -28 -10 -32 -10 -5 1 -8 -4 -8 -12 0 -7 -7
-27 -15 -42 -19 -37 -19 -81 0 -100 14 -14 20 -43 17 -84 0 -8 4 -17 9 -21 5
-3 13 -30 18 -59 5 -30 14 -56 20 -58 6 -2 11 -18 11 -36 0 -27 6 -36 35 -51
21 -12 31 -23 26 -30 -10 -11 13 -38 23 -28 3 4 6 -1 6 -10 0 -10 3 -18 8 -18
34 -6 53 -5 59 4 4 6 1 7 -8 2 -10 -5 -9 -3 2 9 35 37 57 -2 114 -203 32 -113
62 -176 105 -216 17 -16 38 -41 45 -55 20 -39 81 -360 72 -382 -3 -8 -6 -5 -6
7 -1 11 -5 26 -9 33 -13 19 -56 -27 -60 -63 -2 -16 -9 -34 -15 -38 -9 -6 -9
-10 0 -14 10 -3 9 -8 -2 -20 -9 -8 -13 -23 -10 -32 4 -12 -3 -21 -20 -29 -15
-7 -24 -16 -21 -21 4 -5 0 -12 -6 -14 -9 -4 -9 -6 -1 -6 6 -1 19 6 27 15 15
14 16 12 17 -28 1 -24 1 -46 1 -49 -1 -4 -3 -22 -5 -41 -2 -19 -7 -40 -11 -46
-3 -6 -2 -13 4 -17 17 -10 11 -25 -7 -18 -13 5 -15 3 -8 -13 4 -10 9 -30 10
-44 1 -14 4 -27 5 -30 1 -3 2 -20 2 -37 0 -19 5 -33 12 -33 10 0 27 71 40 170
14 107 19 157 17 168 -1 6 3 12 9 12 5 0 10 6 10 13 0 8 8 29 17 48 l17 34 7
-25 c4 -14 7 -38 8 -54 1 -17 15 -46 35 -70 48 -60 91 -131 127 -216 25 -59
32 -93 36 -159 4 -93 14 -110 68 -111 26 -1 28 -2 11 -11 -13 -8 -25 -8 -42 0
-19 8 -24 8 -24 -4 0 -21 115 -22 123 -1 3 8 43 36 89 64 123 75 175 117 322
259 167 161 244 228 324 283 71 48 101 45 59 -6 -13 -16 -32 -44 -43 -63 -10
-19 -39 -53 -64 -75 -25 -23 -57 -53 -73 -68 -16 -16 -33 -28 -38 -28 -5 0
-14 -9 -21 -20 -7 -11 -20 -20 -29 -20 -22 0 -74 -47 -74 -67 0 -22 -64 -63
-135 -88 -30 -10 -57 -21 -60 -25 -3 -4 -17 -13 -32 -21 -115 -60 -218 -122
-218 -130 0 -5 143 -9 358 -9 l357 1 -72 38 c-84 44 -103 58 -103 76 0 9 31
12 123 12 67 0 156 6 197 14 41 8 88 12 104 9 15 -3 57 -3 92 -2 59 3 64 5 64
27 0 46 -30 95 -76 125 -25 16 -52 26 -60 23 -19 -7 -32 31 -35 105 -2 61 10
92 37 92 21 0 43 28 37 50 -3 11 -9 20 -12 20 -4 0 -8 7 -8 15 0 8 5 15 10 15
6 0 1 8 -10 18 -11 9 -20 24 -20 32 -1 8 -4 47 -8 87 -6 54 -11 70 -21 66 -8
-3 -14 -10 -14 -17 0 -6 -9 -18 -20 -26 -11 -8 -20 -20 -20 -26 0 -7 -7 -15
-16 -18 -8 -3 -13 -10 -9 -15 3 -5 -4 -12 -15 -16 -11 -3 -27 -13 -35 -22 -21
-21 -31 -8 -16 20 16 30 8 97 -13 109 -9 5 -16 14 -16 20 0 18 -33 37 -67 38
-17 0 -35 5 -38 11 -5 6 -11 4 -19 -6 -6 -9 -27 -18 -46 -21 -19 -2 -48 -6
-65 -9 -25 -4 -27 -3 -12 6 11 6 24 12 30 13 7 1 42 16 78 34 70 34 108 66 90
77 -6 3 -11 10 -11 14 0 9 27 40 52 59 15 12 15 9 7 -29 -13 -55 -1 -68 44
-50 17 7 46 15 62 18 17 2 34 9 40 14 20 20 33 114 28 201 -4 57 -2 92 5 101
10 11 23 86 24 137 0 8 8 23 16 33 13 14 13 24 4 56 -9 29 -25 47 -72 80 -33
23 -60 39 -60 34 0 -4 -5 -1 -10 7 -8 13 -10 13 -10 -2 0 -9 -6 -19 -12 -21
-9 -4 -7 -6 3 -6 9 -1 16 -8 16 -16 0 -12 -7 -14 -29 -10 -33 8 -48 -15 -28
-40 17 -20 8 -28 -32 -29 -18 -1 -42 -9 -52 -18 -24 -22 -36 -23 -36 -4 0 8
-6 16 -12 19 -7 2 -9 8 -5 13 5 5 15 1 23 -10 8 -11 14 -15 14 -9 0 6 11 14
25 17 17 4 22 11 18 22 -3 9 -13 14 -24 11 -12 -3 -16 0 -12 10 8 21 45 32 66
21 15 -8 20 -5 24 11 3 12 9 21 14 21 5 0 9 7 9 16 0 8 -4 12 -10 9 -5 -3 -10
3 -10 14 0 12 -7 21 -15 21 -19 0 -56 36 -47 46 4 4 -6 4 -22 0 -26 -6 -28 -5
-17 8 11 13 11 16 -3 16 -9 0 -15 5 -14 12 3 12 -3 14 -43 17 -11 0 -17 6 -14
11 3 6 0 10 -7 11 -7 0 -2 5 12 11 21 9 22 12 8 15 -20 5 -25 33 -7 33 8 0 9
4 0 13 -6 8 -8 17 -4 21 4 4 1 11 -7 16 -8 6 -10 10 -4 10 21 0 25 33 8 76 -9
24 -20 44 -24 44 -4 0 -2 17 6 38 11 30 11 39 0 46 -10 7 -11 17 -3 42 7 23 7
41 0 56 -5 13 -11 46 -12 73 -2 58 -11 90 -54 198 -28 71 -33 77 -60 77 -16 0
-26 -4 -22 -10 4 -6 11 -8 16 -5 5 4 10 0 10 -7 1 -7 3 -28 5 -45 2 -18 0 -33
-4 -33 -4 0 -8 -12 -8 -27 -3 -61 -10 -93 -19 -89 -5 2 -9 8 -8 14 2 6 -3 9
-11 6 -8 -3 -16 -15 -18 -28 -5 -24 16 -51 32 -41 6 3 10 -3 10 -13 0 -11 -7
-22 -15 -26 -8 -3 -15 -16 -15 -30 0 -15 -7 -25 -19 -29 -15 -4 -19 -12 -17
-38 2 -19 -2 -37 -7 -41 -15 -10 -14 -72 1 -84 12 -8 10 -13 -11 -27 -20 -13
-25 -24 -23 -49 2 -28 7 -33 28 -33 22 1 24 -2 15 -17 -6 -9 -13 -15 -16 -13
-2 3 -19 -11 -36 -31 -36 -40 -38 -79 -4 -69 25 8 25 -19 1 -43 -30 -30 -49
-8 -45 53 2 28 6 57 9 65 4 8 8 39 10 68 1 29 8 59 14 67 6 8 10 31 9 52 -2
21 -1 43 2 48 3 6 6 23 7 39 1 16 7 35 12 41 6 7 9 40 6 74 -2 34 0 64 6 67 5
3 8 13 6 22 -1 10 1 23 5 30 5 7 3 12 -4 12 -9 0 -9 4 1 15 6 8 9 19 6 24 -4
5 -2 12 4 16 5 3 10 13 10 22 0 9 7 24 15 33 8 9 18 37 21 61 7 52 8 53 37 54
12 0 23 7 25 18 2 10 -3 17 -12 17 -9 0 -18 12 -22 28 -3 15 -8 35 -11 44 -2
10 -4 86 -4 170 0 213 -31 364 -110 537 -17 36 -70 159 -119 272 -49 114 -98
224 -109 245 l-21 39 0 -35 c1 -19 5 -54 9 -77 5 -23 6 -45 2 -48 -3 -3 -4
-22 -2 -41 1 -19 -2 -34 -8 -34 -6 0 -11 -8 -11 -17 0 -15 2 -16 10 -3 8 12
10 11 10 -6 0 -12 -8 -24 -18 -26 -18 -5 -18 -6 -12 92 1 19 1 53 0 75 -2 36
-4 31 -24 -45 l-22 -85 -37 -3 c-29 -3 -37 -8 -37 -22 0 -16 7 -19 35 -18 19
1 37 -1 40 -4 10 -9 -7 -38 -21 -38 -8 0 -18 -8 -21 -17 -9 -26 -54 -83 -64
-83 -12 0 -11 47 1 55 5 3 6 13 3 21 -4 10 -1 15 8 14 27 -4 40 0 34 11 -4 6
-14 8 -22 4 -16 -5 -15 9 1 93 3 12 2 22 -2 22 -20 -1 -36 -22 -37 -52 -3 -46
-14 -68 -36 -68 -31 0 -44 84 -15 102 7 5 6 8 -4 8 -10 0 -11 3 -4 8 6 4 19
22 28 40 9 17 21 32 26 32 6 0 10 6 10 14 0 27 16 25 18 -2 1 -14 -3 -29 -9
-32 -7 -5 -5 -9 5 -13 12 -5 16 0 16 17 0 13 6 29 14 35 17 15 9 54 -10 47
-10 -4 -14 4 -14 29 0 18 -4 37 -10 40 -6 4 -7 -1 -3 -12 6 -16 5 -16 -10 -4
-9 7 -15 17 -12 21 7 12 -9 20 -23 12z m213 -371 c-15 -15 -15 -14 -5 14 6 17
11 31 11 33 -1 1 0 8 0 15 1 6 4 -1 6 -17 3 -18 -1 -35 -12 -45z m-135 -155
c-6 -8 -18 -12 -26 -9 -23 9 -16 23 12 23 22 0 24 -2 14 -14z m-15 -57 c8 -12
-25 -40 -40 -35 -5 2 -9 9 -7 15 1 6 -3 11 -9 11 -5 0 -7 5 -4 10 8 13 52 13
60 -1z m-25 -119 c0 -5 -4 -10 -10 -10 -5 0 -10 5 -10 10 0 6 5 10 10 10 6 0
10 -4 10 -10z m-12 -62 c-5 -15 -48 -24 -48 -10 0 14 12 22 33 22 10 0 17 -5
15 -12z m522 -1152 c0 -2 -7 -6 -15 -10 -8 -3 -15 -1 -15 4 0 6 7 10 15 10 8
0 15 -2 15 -4z m20 -24 c0 -13 -12 -22 -22 -16 -10 6 -1 24 13 24 5 0 9 -4 9
-8z m-60 -232 c-8 -5 -17 -7 -19 -4 -3 3 1 9 9 14 8 5 17 7 19 4 3 -3 -1 -9
-9 -14z m240 -81 c0 -5 -4 -9 -10 -9 -5 0 -10 7 -10 16 0 8 5 12 10 9 6 -3 10
-10 10 -16z m17 -1 c-3 -8 -6 -5 -6 6 -1 11 2 17 5 13 3 -3 4 -12 1 -19z
m-348 -49 c-12 -21 -14 -22 -17 -6 -6 28 6 53 19 40 8 -8 7 -18 -2 -34z m60 9
c-1 -18 -2 -19 -6 -5 -2 9 -9 14 -15 11 -7 -4 -8 -2 -4 4 12 20 26 13 25 -10z
m381 -68 c0 -5 -5 -10 -11 -10 -5 0 -7 5 -4 10 3 6 8 10 11 10 2 0 4 -4 4 -10z
m15 -20 c-3 -5 -12 -10 -18 -10 -7 0 -6 4 3 10 19 12 23 12 15 0z m-55 -73 c0
-16 -35 -1 -38 16 -3 16 -1 17 17 5 12 -7 21 -17 21 -21z m-380 -99 c0 -15 5
-28 10 -28 26 0 -5 -77 -35 -86 -11 -4 -22 -7 -25 -6 -3 0 -14 -7 -24 -16 -11
-9 -17 -12 -13 -6 3 6 -3 18 -14 27 -23 20 -25 45 -4 53 9 4 15 19 15 36 0 16
4 27 10 23 5 -3 18 3 28 13 28 28 52 24 52 -10z m508 -94 c2 -1 1 -12 -3 -24
-5 -17 -10 -19 -21 -9 -8 6 -14 8 -14 3 0 -5 -5 -2 -10 6 -6 10 -10 11 -10 3
0 -7 -9 -13 -20 -13 -17 0 -18 3 -9 24 10 21 16 24 48 19 20 -3 38 -7 39 -9z
m-1198 -44 c7 -16 30 -53 51 -81 38 -51 39 -55 39 -133 -1 -119 -16 -335 -24
-343 -22 -22 -50 108 -71 327 -8 91 -18 186 -21 213 -7 53 7 63 26 17z m1190
-306 c0 -8 -5 -12 -10 -9 -6 4 -8 11 -5 16 9 14 15 11 15 -7z"/>
<path d="M7966 3883 c-14 -15 -4 -31 22 -35 23 -3 28 0 30 17 1 15 -5 21 -22
23 -13 1 -26 -1 -30 -5z"/>
<path d="M8464 3234 c3 -8 6 -31 6 -50 0 -33 20 -47 35 -24 9 14 -16 78 -33
85 -10 4 -12 0 -8 -11z"/>
<path d="M5848 3114 c-8 -14 -1 -95 9 -105 12 -12 16 82 4 100 -5 7 -11 9 -13
5z"/>
<path d="M8490 3063 c0 -5 5 -15 11 -23 9 -13 10 -13 6 2 -3 9 -1 19 6 22 7 2
4 5 -5 5 -10 1 -18 -2 -18 -6z"/>
<path d="M8511 2991 c-9 -16 -8 -18 9 -14 21 6 26 18 11 28 -6 3 -15 -3 -20
-14z"/>
<path d="M8506 2949 c-14 -14 -16 -19 -5 -19 22 0 39 14 31 26 -5 7 -14 5 -26
-7z"/>
<path d="M8517 2843 c-3 -5 -4 -30 -3 -57 2 -40 -1 -49 -18 -56 -12 -5 -15 -9
-8 -9 7 -1 10 -5 7 -11 -8 -14 18 -13 50 2 26 11 32 23 17 32 -5 3 -7 18 -5
33 5 28 -30 83 -40 66z"/>
<path d="M7356 2652 c-2 -4 4 -8 15 -8 10 0 19 4 19 8 0 4 -6 8 -14 8 -8 0
-17 -4 -20 -8z"/>
<path d="M8498 2623 c7 -3 16 -2 19 1 4 3 -2 6 -13 5 -11 0 -14 -3 -6 -6z"/>
<path d="M7313 2602 c1 -14 5 -18 11 -12 7 7 6 14 -1 21 -9 9 -12 7 -10 -9z"/>
<path d="M8641 2504 c-3 -74 -3 -100 0 -174 0 -16 0 -45 -1 -62 0 -18 2 -44 4
-58 3 -14 9 -39 12 -57 7 -39 29 -61 38 -38 3 8 10 15 17 15 6 0 8 -7 5 -16
-3 -8 -2 -12 4 -9 6 3 10 15 10 26 0 10 5 19 10 19 6 0 10 9 10 20 0 11 -4 20
-9 20 -11 0 -21 51 -13 64 5 9 6 34 3 80 -1 7 -12 30 -26 50 -13 20 -29 62
-34 94 -17 105 -27 114 -30 26z m69 -274 c0 -5 -5 -10 -11 -10 -5 0 -7 5 -4
10 3 6 8 10 11 10 2 0 4 -4 4 -10z"/>
<path d="M6134 2491 c0 -11 4 -17 8 -15 11 7 10 -4 -2 -27 -7 -13 -7 -19 0
-19 5 0 10 -9 10 -19 0 -11 5 -21 11 -23 6 -2 1 -16 -12 -33 -21 -28 -21 -28
-2 -12 24 21 43 6 23 -18 -10 -12 -9 -15 8 -15 15 0 20 5 17 20 -2 11 -7 25
-10 30 -3 6 -2 10 3 10 20 0 21 33 2 60 -11 15 -24 39 -30 54 -11 30 -26 34
-26 7z"/>
<path d="M8425 2440 c-3 -6 1 -7 9 -4 18 7 21 14 7 14 -6 0 -13 -4 -16 -10z"/>
<path d="M6375 2400 c-3 -5 -2 -10 4 -10 5 0 13 5 16 10 3 6 2 10 -4 10 -5 0
-13 -4 -16 -10z"/>
<path d="M6307 2373 c3 -7 9 -13 14 -13 5 0 9 6 9 13 0 8 -6 14 -14 14 -8 0
-12 -6 -9 -14z"/>
<path d="M6340 2346 c0 -2 7 -7 16 -10 8 -3 12 -2 9 4 -6 10 -25 14 -25 6z"/>
<path d="M6358 2231 c-3 -18 0 -28 6 -24 5 4 7 -1 3 -10 -3 -9 -2 -19 3 -22 5
-3 14 -39 21 -80 6 -41 16 -75 21 -75 5 0 8 -6 6 -13 -5 -23 53 -122 87 -147
18 -14 33 -27 33 -30 -1 -14 15 -50 22 -50 5 0 6 -9 3 -21 -4 -12 7 -46 26
-84 18 -36 30 -69 26 -74 -3 -6 3 -16 14 -23 16 -10 18 -15 8 -27 -10 -12 -9
-13 2 -6 11 6 13 4 8 -8 -5 -13 -1 -17 16 -18 12 0 16 -3 10 -6 -7 -2 -13 -10
-13 -16 0 -5 3 -8 6 -4 3 3 19 -6 35 -21 22 -19 26 -28 17 -34 -10 -6 -10 -8
0 -8 6 0 21 -9 32 -20 11 -11 20 -15 20 -10 0 6 4 10 9 10 4 0 7 -15 5 -32 -3
-24 -1 -29 6 -18 5 8 12 11 16 7 4 -4 2 -13 -4 -19 -17 -17 -15 -31 4 -24 14
6 15 4 4 -9 -11 -14 -10 -17 7 -21 16 -5 20 -13 18 -48 -1 -32 3 -43 13 -42
17 1 39 -30 29 -40 -3 -4 -14 -1 -24 7 -9 8 -4 -3 11 -23 16 -21 26 -38 22
-38 -3 0 12 -18 34 -40 22 -22 40 -45 40 -52 0 -6 11 -26 25 -44 14 -18 25
-36 25 -39 0 -4 7 -13 15 -21 8 -9 15 -12 15 -7 0 4 9 -5 19 -21 11 -16 17
-35 14 -41 -2 -7 0 -16 6 -20 6 -3 9 0 5 8 -4 11 4 14 38 12 24 -1 51 -5 61
-10 10 -4 43 -5 73 -2 30 3 54 2 54 -4 0 -5 18 -9 39 -9 39 0 51 11 51 47 0
22 -59 103 -75 103 -8 0 -15 9 -15 19 0 11 -5 23 -10 26 -6 4 -9 14 -8 23 2
12 -3 16 -17 15 -11 -1 -14 0 -7 3 20 9 15 44 -7 44 -14 0 -18 5 -14 19 3 13
-2 23 -16 30 -12 7 -18 17 -15 26 5 11 -1 15 -20 15 -18 0 -26 5 -26 18 0 14
2 15 10 2 8 -12 10 -12 15 2 10 24 -2 37 -28 33 -22 -4 -22 -4 -2 11 12 9 16
18 10 22 -6 4 -18 21 -27 39 -15 30 -15 32 0 36 15 4 15 5 0 6 -11 1 -18 9
-18 20 0 11 -6 18 -16 17 -13 -1 -17 9 -18 42 0 23 4 44 9 46 6 3 4 5 -2 5 -7
1 -13 14 -13 29 0 16 -3 32 -7 35 -3 4 -7 19 -8 34 -1 16 -5 36 -9 46 -7 14
-5 16 10 11 15 -4 13 0 -6 16 -14 12 -25 27 -26 34 0 6 -2 13 -3 16 -10 20 -6
50 6 50 8 0 11 -4 8 -10 -3 -5 -1 -10 5 -10 12 0 7 38 -16 120 -9 30 -18 69
-21 86 -6 42 -39 58 -65 32 -20 -20 -24 -33 -6 -22 7 4 8 3 4 -5 -10 -16 -29
-2 -21 16 3 10 -3 22 -16 31 -14 10 -19 22 -16 38 3 20 2 22 -9 13 -11 -9 -14
-8 -14 0 0 7 -4 9 -10 6 -5 -3 -10 -1 -10 5 0 7 7 10 15 6 19 -7 19 4 0 31
-10 14 -22 20 -37 16 -18 -4 -20 -3 -8 6 11 8 12 13 3 22 -8 8 -13 6 -18 -9
-7 -23 -35 -19 -35 4 0 8 -4 14 -10 14 -5 0 -10 8 -10 17 0 15 -1 15 -14 -2
-8 -12 -20 -16 -34 -13 -19 5 -20 3 -12 -12 15 -28 12 -33 -17 -25 -23 5 -25
4 -14 -9 7 -9 17 -13 22 -10 5 3 8 0 7 -7 -2 -7 3 -13 11 -14 8 0 16 -6 19
-14 3 -10 0 -12 -12 -8 -10 4 -21 7 -26 7 -5 0 -11 8 -14 18 -3 9 -15 23 -27
30 -18 11 -23 12 -30 1 -4 -8 -11 -10 -16 -5 -4 4 0 12 10 17 16 9 16 12 1 26
-12 13 -13 17 -2 24 9 6 9 9 1 9 -6 0 -15 -5 -18 -10 -4 -6 -11 -7 -17 -4 -7
4 -8 2 -4 -4 4 -7 1 -12 -8 -12 -9 0 -16 -4 -16 -10 0 -5 4 -10 10 -10 6 0 9
-3 9 -7 -6 -34 3 -53 24 -53 20 0 20 -1 -7 -15 -38 -20 -45 -19 -58 10 -8 19
-8 28 2 40 10 12 10 15 -4 15 -9 0 -16 -5 -16 -12 0 -6 -3 -9 -6 -5 -8 8 11
40 22 35 15 -6 16 31 1 47 -12 11 -17 12 -25 2 -13 -15 -19 -88 -8 -105 4 -7
2 -12 -3 -12 -6 0 -11 5 -11 11 0 5 -4 8 -9 4 -13 -7 -24 13 -26 44 0 13 -6
26 -13 29 -7 2 -12 15 -12 29 0 21 -39 73 -54 73 -2 0 -6 -13 -8 -29z m507
-149 c-8 -8 -25 10 -19 20 4 6 9 5 15 -3 4 -7 6 -15 4 -17z m-135 -58 c0 -17
-24 -18 -38 -1 -8 9 -4 12 14 13 15 1 24 -4 24 -12z m60 -90 c0 -2 -7 -4 -15
-4 -8 0 -15 4 -15 10 0 5 7 7 15 4 8 -4 15 -8 15 -10z m160 -104 c0 -5 -2 -10
-4 -10 -3 0 -8 5 -11 10 -3 6 -1 10 4 10 6 0 11 -4 11 -10z m10 -110 c0 -5 -2
-10 -4 -10 -3 0 -8 5 -11 10 -3 6 -1 10 4 10 6 0 11 -4 11 -10z"/>
<path d="M7305 2210 c3 -5 8 -10 11 -10 2 0 4 5 4 10 0 6 -5 10 -11 10 -5 0
-7 -4 -4 -10z"/>
<path d="M6700 2190 c-13 -8 -12 -10 3 -10 9 0 17 5 17 10 0 12 -1 12 -20 0z"/>
<path d="M6795 2150 c3 -5 8 -10 11 -10 2 0 4 5 4 10 0 6 -5 10 -11 10 -5 0
-7 -4 -4 -10z"/>
<path d="M6645 2140 c-3 -5 3 -10 14 -10 12 0 21 5 21 10 0 6 -6 10 -14 10 -8
0 -18 -4 -21 -10z"/>
<path d="M6540 2060 c0 -5 5 -10 11 -10 5 0 7 5 4 10 -3 6 -8 10 -11 10 -2 0
-4 -4 -4 -10z"/>
<path d="M8710 2000 c0 -14 32 -92 46 -114 12 -18 15 -17 47 18 46 49 43 70
-12 74 -29 2 -39 7 -34 15 4 7 -2 5 -12 -3 -10 -8 -16 -10 -12 -4 4 7 0 14 -8
18 -8 3 -15 1 -15 -4z"/>
<path d="M6064 1238 c3 -15 26 -23 26 -8 0 6 -4 9 -9 6 -5 -4 -12 -1 -14 4 -3
6 -4 5 -3 -2z"/>
<path d="M8971 948 c-1 -29 -3 -66 -4 -82 -1 -16 4 -31 11 -33 9 -4 12 17 12
81 0 93 -15 119 -19 34z"/>
<path d="M6310 921 c0 -6 5 -13 10 -16 6 -3 10 1 10 9 0 9 -4 16 -10 16 -5 0
-10 -4 -10 -9z"/>
<path d="M6786 785 c4 -8 11 -15 16 -15 6 0 5 6 -2 15 -7 8 -14 15 -16 15 -2
0 -1 -7 2 -15z"/>
<path d="M7475 420 c3 -5 8 -10 11 -10 2 0 4 5 4 10 0 6 -5 10 -11 10 -5 0 -7
-4 -4 -10z"/>
<path d="M7661 334 c0 -11 3 -14 6 -6 3 7 2 16 -1 19 -3 4 -6 -2 -5 -13z"/>
<path d="M7404 285 c-17 -13 -17 -14 -2 -15 9 0 20 5 23 11 11 17 0 20 -21 4z"/>
<path d="M7413 238 c-2 -16 0 -19 6 -9 5 7 15 17 22 22 11 7 9 9 -6 9 -14 0
-21 -7 -22 -22z"/>
<path d="M7391 234 c-1 -25 24 -51 34 -34 3 5 -1 10 -9 10 -8 0 -17 10 -19 23
-4 21 -4 21 -6 1z"/>
<path d="M7373 193 c-7 -3 -13 -11 -13 -19 0 -8 -9 -22 -20 -31 -11 -10 -20
-25 -20 -34 0 -9 -7 -19 -15 -23 -8 -3 -15 -14 -15 -25 0 -11 -8 -25 -17 -30
-10 -6 -13 -11 -8 -11 6 0 3 -5 -5 -10 -10 -7 21 -10 97 -10 l112 0 15 30 c9
19 10 30 4 30 -6 0 -3 9 6 19 24 27 33 91 13 91 -9 0 -17 -5 -19 -10 -2 -6
-13 -12 -25 -13 -12 0 -20 -3 -18 -6 8 -7 -27 -41 -42 -41 -7 0 -13 -4 -13
-10 0 -5 -7 -7 -16 -3 -8 3 -13 12 -10 20 3 8 1 11 -4 8 -6 -3 -10 -1 -10 5 0
6 7 13 16 17 9 3 13 12 9 21 -3 8 0 19 7 23 15 9 8 18 -9 12z"/>
<path d="M7441 174 c0 -11 3 -14 6 -6 3 7 2 16 -1 19 -3 4 -6 -2 -5 -13z"/>
<path d="M4426 139 c-18 -37 -19 -39 -8 -39 12 0 42 59 32 65 -5 3 -16 -9 -24
-26z"/>
<path d="M8880 130 c0 -5 6 -10 14 -10 8 0 18 5 21 10 3 6 -3 10 -14 10 -12 0
-21 -4 -21 -10z"/>
<path d="M8878 103 c7 -3 16 -2 19 1 4 3 -2 6 -13 5 -11 0 -14 -3 -6 -6z"/>
<path d="M4362 30 c-18 -24 -19 -30 -8 -30 9 0 22 14 31 30 9 17 12 30 7 30
-4 0 -18 -13 -30 -30z"/>
<path d="M6720 10 c0 -5 14 -10 31 -10 17 0 28 4 24 10 -8 13 -55 13 -55 0z"/>
</g>
</svg>
